<svg width="256" height="256" viewBox="0 0 256 256" fill="none" xmlns="http://www.w3.org/2000/svg">
<g style="mix-blend-mode:overlay">
<path d="M32 8V6H30V4H26V2H22V0H12V2H8V4H4V6H2V8H0V49H4V47H9V49H14V47H20V49H25V47H30V49H34V8H32Z" fill="#4D6197" fill-opacity="0.5"/>
</g>
<path d="M160 8V6H158V4H154V2H150V0H140V2H136V4H132V6H130V8H128V49H132V47H137V49H142V47H148V49H153V47H158V49H162V8H160Z" fill="#FF87C0" fill-opacity="0.4"/>
<path d="M194 169V171H196V173H200V175H204V177H214V175H218V173H222V171H224V169H226V128H222V130H217V128H212V130H206V128H201V130H196V128H192V169H194Z" fill="#FF87C0" fill-opacity="0.4"/>
<g style="mix-blend-mode:overlay">
<path d="M66 169V171H68V173H72V175H76V177H86V175H90V173H94V171H96V169H98V128H94V130H89V128H84V130H78V128H73V130H68V128H64V169H66Z" fill="#4D6197" fill-opacity="0.5"/>
</g>
</svg>
