<svg width="68" height="108" viewBox="0 0 68 108" fill="none" xmlns="http://www.w3.org/2000/svg">
<path d="M12 12H16V8H8V12H10H12Z" fill="#64438E"/>
<path d="M8 16V12H4V16H6H8ZM20 8H24V4H16V8H18H20Z" fill="#64438E"/>
<path d="M28 4H44V0H24V4H26H28ZM60 16H64V12H60V14V16Z" fill="#64438E"/>
<path d="M66 16H64V94H60V98H68V16H66ZM44 8H52V4H44V6V8Z" fill="#64438E"/>
<path d="M52 12H60V8H52V10V12ZM4 94V16H0V98H8V94H6H4Z" fill="#64438E"/>
<path d="M18 90H8V94H18V92V90Z" fill="#64438E"/>
<path d="M24 94H18V98H28V94H26H24ZM60 90H50V94H60V92V90Z" fill="#64438E"/>
<path d="M40 90H28V94H40V92V90Z" fill="#64438E"/>
<path d="M46 94H40V98H50V94H48H46Z" fill="#64438E"/>
<path d="M6 74V86H10V84H14V86H18V90H8V94H4V16H8V18H6V70V74Z" fill="#EDD3FD"/>
<path d="M24 90H18V94H28V90H26H24ZM46 90H40V94H50V90H48H46Z" fill="#EDD3FD"/>
<path d="M40 86H36V84H32V86H28V90H40V88V86ZM20 10H24V8H16V10H18H20ZM12 14H16V12H8V14H10H12ZM60 76V86H58V84H54V86H50V90H60V94H64V16H60V74V76Z" fill="#EDD3FD"/>
<path d="M44 4H24V6H34V8H44V6V4ZM60 12H52V16H60V14V12Z" fill="#EDD3FD"/>
<path d="M52 8H44V12H52V10V8Z" fill="#EDD3FD"/>
<path d="M58 16H52V12H44V8H34V6H24V10H16V14H8V18H6V86H10V84H14V86H18V90H28V86H32V84H36V86H40V90H50V86H54V84H58V86H60V16H58Z" fill="white"/>
<path d="M12 52V56H16V52H14H12ZM54 52H52V56H56V52H54Z" fill="#F696C6"/>
<path d="M28 52H24V56H28V54V52Z" fill="#64438E"/>
<path d="M36 56H28V60H40V56H38H36Z" fill="#64438E"/>
<path d="M42 52H40V56H44V52H42Z" fill="#64438E"/>
<path d="M8 72H10V74H8V72ZM10 60H12V62H10V60Z" fill="#64438E"/>
<path d="M12 62H14V64H12V62ZM22 68V76H24V68H22ZM12 74H10V76H14V74H12Z" fill="#64438E"/>
<path d="M18 76H14V78H22V76H20H18ZM20 66H18V68H22V66H20Z" fill="#64438E"/>
<path d="M16 64H14V66H18V64H16Z" fill="#64438E"/>
<path d="M8 74H10V76H8V74ZM18 78H14V80H22V78H20H18Z" fill="#EDD3FD"/>
<path d="M24 70V76H26V70H24ZM12 76H10V78H14V76H12Z" fill="#EDD3FD"/>
<path d="M22 76H24V78H22V76ZM8 70H6V74H8V72V70Z" fill="#EDD3FD"/>
<path d="M58 72H60V74H58V72ZM56 60H58V62H56V60Z" fill="#64438E"/>
<path d="M54 62H56V64H54V62Z" fill="#64438E"/>
<path d="M54 66V64H50V66H52H54ZM54 74V76H58V74H56H54Z" fill="#64438E"/>
<path d="M50 76H46V78H54V76H52H50Z" fill="#64438E"/>
<path d="M46 72V68H44V76H46V74V72Z" fill="#64438E"/>
<path d="M50 68V66H46V68H48H50Z" fill="#64438E"/>
<path d="M54 76V78H58V76H56H54ZM44 72V70H42V76H44V74V72Z" fill="#EDD3FD"/>
<path d="M50 78H46V80H54V78H52H50Z" fill="#EDD3FD"/>
<path d="M44 76H46V78H44V76ZM58 74H60V76H58V74Z" fill="#EDD3FD"/>
<path opacity="0.25" d="M20 104H8V106H10V108H58V106H60V104H58H20Z" fill="black"/>
<path d="M28 22V18H26V26H28V24V22Z" fill="#64438E"/>
<path d="M28 16H30V18H28V16ZM28 26H30V28H28V26Z" fill="#64438E"/>
<path d="M30 28H32V30H30V28Z" fill="#64438E"/>
<path d="M32 30V32H36V30H34H32ZM30 14H32V16H30V14ZM38 26H40V28H38V26ZM38 16H40V18H38V16Z" fill="#64438E"/>
<path d="M36 14V12H32V14H34H36ZM36 28H38V30H36V28Z" fill="#64438E"/>
<path d="M36 14H38V16H36V14ZM40 18V26H42V18H40Z" fill="#64438E"/>
<path d="M38 22H34V30H36V28H38V26H40V22H38Z" fill="#C260FF"/>
<path d="M30 22H28V26H30V28H32V30H34V22H32H30Z" fill="#DEA8FF"/>
<path d="M38 18V16H36V14H34V22H40V18H38Z" fill="#DEA8FF"/>
<path d="M32 22H34V14H32V16H30V18H28V22H30H32Z" fill="#EDD3FD"/>
<path d="M16 44V46V48H18H20H22H24V46V44H26H28V42V40V38V36H26H24V34V32H22H20H18H16V34V36H14H12V38V40V42V44H14H16Z" fill="#64438E"/>
<path d="M40 36V38V40V42V44H42H44V46V48H46H48H50H52V46V44H54H56V42V40V38V36H54H52V34V32H50H48H46H44V34V36H42H40Z" fill="#64438E"/>
</svg>
