<svg width="576" height="69" viewBox="0 0 576 69" fill="none" xmlns="http://www.w3.org/2000/svg">
<path d="M1.575 27.8V26.38H11.175V27.8H1.575ZM13.5672 27.8V26.38H23.1672V27.8H13.5672ZM25.5594 27.8V26.38H35.1594V27.8H25.5594ZM37.5516 27.8V26.38H47.1516V27.8H37.5516ZM49.5438 27.8V26.38H59.1438V27.8H49.5438ZM61.5359 27.8V26.38H71.1359V27.8H61.5359ZM73.5281 27.8V26.38H83.1281V27.8H73.5281ZM85.5203 27.8V26.38H95.1203V27.8H85.5203ZM97.5125 27.8V26.38H107.113V27.8H97.5125ZM109.505 27.8V26.38H119.105V27.8H109.505ZM121.497 27.8V26.38H131.097V27.8H121.497ZM133.489 27.8V26.38H143.089V27.8H133.489ZM145.481 27.8V26.38H155.081V27.8H145.481ZM157.473 27.8V26.38H167.073V27.8H157.473ZM169.466 27.8V26.38H179.066V27.8H169.466ZM181.458 27.8V26.38H191.058V27.8H181.458ZM193.45 27.8V26.38H203.05V27.8H193.45ZM205.442 27.8V26.38H215.042V27.8H205.442ZM217.434 27.8V26.38H227.034V27.8H217.434ZM229.427 27.8V26.38H239.027V27.8H229.427ZM241.419 27.8V26.38H251.019V27.8H241.419ZM253.411 27.8V26.38H263.011V27.8H253.411ZM265.403 27.8V26.38H275.003V27.8H265.403ZM277.395 27.8V26.38H286.995V27.8H277.395ZM289.388 27.8V26.38H298.988V27.8H289.388ZM301.38 27.8V26.38H310.98V27.8H301.38ZM313.372 27.8V26.38H322.972V27.8H313.372ZM325.364 27.8V26.38H334.964V27.8H325.364ZM349.348 27.8V26.38H358.948V27.8H349.348ZM361.341 27.8V26.38H370.941V27.8H361.341ZM373.333 27.8V26.38H382.933V27.8H373.333ZM385.325 27.8V26.38H394.925V27.8H385.325ZM397.317 27.8V26.38H406.917V27.8H397.317ZM409.309 27.8V26.38H418.909V27.8H409.309ZM421.302 27.8V26.38H430.902V27.8H421.302ZM433.294 27.8V26.38H442.894V27.8H433.294ZM445.286 27.8V26.38H454.886V27.8H445.286ZM457.278 27.8V26.38H466.878V27.8H457.278ZM469.27 27.8V26.38H478.87V27.8H469.27ZM481.263 27.8V26.38H490.863V27.8H481.263ZM493.255 27.8V26.38H502.855V27.8H493.255ZM505.247 27.8V26.38H514.847V27.8H505.247ZM517.239 27.8V26.38H526.839V27.8H517.239ZM529.231 27.8V26.38H538.831V27.8H529.231ZM541.223 27.8V26.38H550.823V27.8H541.223ZM553.216 27.8V26.38H562.816V27.8H553.216ZM565.208 27.8V26.38H574.808V27.8H565.208Z" fill="#C4A742"/>
<path d="M337.356 27.8V26.38H346.956V27.8H337.356Z" fill="#C3A742"/>
<path d="M369.977 62.1V48.28H371.337L371.477 49.52H371.537C371.991 49.0933 372.511 48.74 373.097 48.46C373.697 48.18 374.297 48.04 374.897 48.04C375.551 48.04 376.124 48.16 376.617 48.4C377.124 48.6267 377.544 48.96 377.877 49.4C378.224 49.8267 378.484 50.3467 378.657 50.96C378.831 51.56 378.917 52.24 378.917 53C378.917 53.8267 378.797 54.5667 378.557 55.22C378.317 55.86 377.991 56.4067 377.577 56.86C377.177 57.3133 376.711 57.66 376.177 57.9C375.644 58.1267 375.084 58.24 374.497 58.24C374.044 58.24 373.551 58.1333 373.017 57.92C372.497 57.6933 372.024 57.38 371.597 56.98H371.537L371.617 58.82V62.1H369.977ZM374.217 56.86C375.097 56.86 375.817 56.52 376.377 55.84C376.937 55.16 377.217 54.2133 377.217 53C377.217 52.4667 377.164 51.98 377.057 51.54C376.951 51.1 376.784 50.7267 376.557 50.42C376.344 50.1 376.064 49.8533 375.717 49.68C375.371 49.5067 374.957 49.42 374.477 49.42C374.051 49.42 373.591 49.54 373.097 49.78C372.617 50.0067 372.124 50.3733 371.617 50.88V55.72C372.084 56.1333 372.551 56.4267 373.017 56.6C373.484 56.7733 373.884 56.86 374.217 56.86ZM386.109 58.24C385.469 58.24 384.856 58.1267 384.269 57.9C383.696 57.6733 383.189 57.3467 382.749 56.92C382.309 56.48 381.956 55.9467 381.689 55.32C381.436 54.68 381.309 53.96 381.309 53.16C381.309 52.3467 381.436 51.6267 381.689 51C381.956 50.36 382.309 49.82 382.749 49.38C383.189 48.94 383.696 48.6067 384.269 48.38C384.856 48.1533 385.469 48.04 386.109 48.04C386.749 48.04 387.356 48.1533 387.929 48.38C388.516 48.6067 389.029 48.94 389.469 49.38C389.909 49.82 390.256 50.36 390.509 51C390.776 51.6267 390.909 52.3467 390.909 53.16C390.909 53.96 390.776 54.68 390.509 55.32C390.256 55.9467 389.909 56.48 389.469 56.92C389.029 57.3467 388.516 57.6733 387.929 57.9C387.356 58.1267 386.749 58.24 386.109 58.24ZM386.109 56.88C386.576 56.88 386.996 56.7933 387.369 56.62C387.756 56.4333 388.083 56.18 388.349 55.86C388.629 55.5267 388.843 55.1333 388.989 54.68C389.136 54.2267 389.209 53.72 389.209 53.16C389.209 52.6 389.136 52.0933 388.989 51.64C388.843 51.1733 388.629 50.7733 388.349 50.44C388.083 50.1067 387.756 49.8533 387.369 49.68C386.996 49.4933 386.576 49.4 386.109 49.4C385.643 49.4 385.216 49.4933 384.829 49.68C384.456 49.8533 384.129 50.1067 383.849 50.44C383.583 50.7733 383.376 51.1733 383.229 51.64C383.083 52.0933 383.009 52.6 383.009 53.16C383.009 53.72 383.083 54.2267 383.229 54.68C383.376 55.1333 383.583 55.5267 383.849 55.86C384.129 56.18 384.456 56.4333 384.829 56.62C385.216 56.7933 385.643 56.88 386.109 56.88ZM394.382 58L392.262 48.28H393.902L395.062 53.92C395.155 54.3867 395.235 54.8333 395.302 55.26C395.368 55.6867 395.435 56.1333 395.502 56.6H395.582C395.648 56.1333 395.728 55.6867 395.822 55.26C395.928 54.82 396.035 54.3733 396.142 53.92L397.342 48.88H398.982L400.142 53.92C400.248 54.3867 400.355 54.8333 400.462 55.26C400.582 55.6867 400.675 56.1333 400.742 56.6H400.822C400.902 56.1333 400.968 55.6867 401.022 55.26C401.088 54.8333 401.168 54.3867 401.262 53.92L402.422 48.28H403.942L401.862 58H399.742L398.622 53.36C398.462 52.68 398.302 51.72 398.142 50.48H398.062C397.902 51.72 397.742 52.68 397.582 53.36L396.502 58H394.382ZM410.694 58.24C409.96 58.24 409.274 58.1267 408.634 57.9C408.007 57.6733 407.454 57.34 406.974 56.9C406.507 56.46 406.134 55.9267 405.854 55.3C405.587 54.66 405.454 53.9333 405.454 53.12C405.454 52.3333 405.587 51.6267 405.854 51C406.134 50.3733 406.5 49.84 406.954 49.4C407.42 48.96 407.947 48.6267 408.534 48.4C409.134 48.16 409.76 48.04 410.414 48.04C411.107 48.04 411.727 48.1533 412.274 48.38C412.834 48.5933 413.3 48.9 413.674 49.3C414.06 49.7 414.354 50.18 414.554 50.74C414.754 51.3 414.854 51.92 414.854 52.6C414.854 52.7867 414.847 52.9667 414.834 53.14C414.82 53.3133 414.8 53.4667 414.774 53.6H407.114C407.22 54.7067 407.62 55.54 408.314 56.1C409.02 56.6467 409.88 56.92 410.894 56.92C411.48 56.92 412.007 56.84 412.474 56.68C412.954 56.5067 413.414 56.28 413.854 56L414.454 57.08C413.974 57.4 413.42 57.6733 412.794 57.9C412.18 58.1267 411.48 58.24 410.694 58.24ZM410.454 49.34C410.054 49.34 409.667 49.4067 409.294 49.54C408.934 49.6733 408.607 49.8667 408.314 50.12C408.02 50.36 407.774 50.6667 407.574 51.04C407.374 51.4133 407.234 51.84 407.154 52.32H413.354C413.287 51.32 412.994 50.5733 412.474 50.08C411.967 49.5867 411.294 49.34 410.454 49.34ZM419.006 58V48.28H420.366L420.506 50.58H420.566C421.073 49.7933 421.693 49.1733 422.426 48.72C423.173 48.2667 423.999 48.04 424.906 48.04C425.266 48.04 425.599 48.0733 425.906 48.14C426.213 48.1933 426.519 48.2933 426.826 48.44L426.446 49.86C426.099 49.74 425.806 49.6533 425.566 49.6C425.339 49.5467 425.033 49.52 424.646 49.52C423.913 49.52 423.206 49.7333 422.526 50.16C421.859 50.5733 421.233 51.2867 420.646 52.3V58H419.006ZM434.678 58.24C433.945 58.24 433.258 58.1267 432.618 57.9C431.991 57.6733 431.438 57.34 430.958 56.9C430.491 56.46 430.118 55.9267 429.838 55.3C429.571 54.66 429.438 53.9333 429.438 53.12C429.438 52.3333 429.571 51.6267 429.838 51C430.118 50.3733 430.485 49.84 430.938 49.4C431.405 48.96 431.931 48.6267 432.518 48.4C433.118 48.16 433.745 48.04 434.398 48.04C435.091 48.04 435.711 48.1533 436.258 48.38C436.818 48.5933 437.285 48.9 437.658 49.3C438.045 49.7 438.338 50.18 438.538 50.74C438.738 51.3 438.838 51.92 438.838 52.6C438.838 52.7867 438.831 52.9667 438.818 53.14C438.805 53.3133 438.785 53.4667 438.758 53.6H431.098C431.205 54.7067 431.605 55.54 432.298 56.1C433.005 56.6467 433.865 56.92 434.878 56.92C435.465 56.92 435.991 56.84 436.458 56.68C436.938 56.5067 437.398 56.28 437.838 56L438.438 57.08C437.958 57.4 437.405 57.6733 436.778 57.9C436.165 58.1267 435.465 58.24 434.678 58.24ZM434.438 49.34C434.038 49.34 433.651 49.4067 433.278 49.54C432.918 49.6733 432.591 49.8667 432.298 50.12C432.005 50.36 431.758 50.6667 431.558 51.04C431.358 51.4133 431.218 51.84 431.138 52.32H437.338C437.271 51.32 436.978 50.5733 436.458 50.08C435.951 49.5867 435.278 49.34 434.438 49.34ZM445.49 58.24C444.85 58.24 444.27 58.1267 443.75 57.9C443.244 57.6733 442.804 57.3467 442.43 56.92C442.057 56.48 441.77 55.9467 441.57 55.32C441.37 54.6933 441.27 53.9733 441.27 53.16C441.27 52.3733 441.39 51.6667 441.63 51.04C441.884 50.4 442.21 49.86 442.61 49.42C443.024 48.98 443.497 48.64 444.03 48.4C444.564 48.16 445.117 48.04 445.69 48.04C446.277 48.04 446.797 48.1533 447.25 48.38C447.717 48.5933 448.164 48.9 448.59 49.3H448.65L448.57 47.5V43.76H450.21V58H448.85L448.71 56.72H448.65C448.25 57.1333 447.77 57.4933 447.21 57.8C446.664 58.0933 446.09 58.24 445.49 58.24ZM445.83 56.86C446.79 56.86 447.704 56.3733 448.57 55.4V50.56C448.13 50.1467 447.697 49.8533 447.27 49.68C446.857 49.5067 446.437 49.42 446.01 49.42C445.584 49.42 445.184 49.5133 444.81 49.7C444.45 49.8733 444.13 50.1267 443.85 50.46C443.584 50.78 443.37 51.1667 443.21 51.62C443.05 52.0733 442.97 52.58 442.97 53.14C442.97 54.3133 443.217 55.2267 443.71 55.88C444.217 56.5333 444.924 56.86 445.83 56.86ZM470.455 58.24C469.988 58.24 469.481 58.1267 468.935 57.9C468.401 57.66 467.901 57.3333 467.435 56.92H467.375L467.235 58H465.915V43.76H467.555V47.64L467.495 49.52H467.555C467.995 49.0667 468.501 48.7067 469.075 48.44C469.661 48.1733 470.241 48.04 470.815 48.04C471.468 48.04 472.048 48.16 472.555 48.4C473.061 48.6267 473.481 48.96 473.815 49.4C474.161 49.8267 474.421 50.3467 474.595 50.96C474.768 51.56 474.855 52.2333 474.855 52.98C474.855 53.8067 474.735 54.5467 474.495 55.2C474.255 55.8533 473.928 56.4067 473.515 56.86C473.115 57.3133 472.648 57.66 472.115 57.9C471.581 58.1267 471.028 58.24 470.455 58.24ZM470.195 56.86C470.621 56.86 471.015 56.7733 471.375 56.6C471.735 56.4133 472.048 56.16 472.315 55.84C472.581 55.5067 472.788 55.1 472.935 54.62C473.081 54.14 473.155 53.6 473.155 53C473.155 52.4667 473.101 51.98 472.995 51.54C472.888 51.1 472.721 50.7267 472.495 50.42C472.281 50.1 472.001 49.8533 471.655 49.68C471.308 49.5067 470.895 49.42 470.415 49.42C469.988 49.42 469.528 49.54 469.035 49.78C468.555 50.0067 468.061 50.3733 467.555 50.88V55.72C468.021 56.1333 468.488 56.4267 468.955 56.6C469.435 56.7733 469.848 56.86 470.195 56.86ZM478.667 62.18C478.187 62.18 477.76 62.1133 477.387 61.98L477.727 60.68C477.86 60.72 478 60.7533 478.147 60.78C478.307 60.8067 478.46 60.82 478.607 60.82C479.287 60.82 479.84 60.62 480.267 60.22C480.694 59.8333 481.027 59.34 481.267 58.74L481.567 58.02L477.027 48.28H478.687L481.067 53.66C481.254 54.0867 481.447 54.5467 481.647 55.04C481.86 55.5333 482.067 56.0133 482.267 56.48H482.347C482.52 56.0133 482.694 55.54 482.867 55.06C483.054 54.5667 483.227 54.1 483.387 53.66L485.507 48.28H487.067L482.787 58.8C482.6 59.28 482.387 59.7267 482.147 60.14C481.907 60.5533 481.62 60.9067 481.287 61.2C480.954 61.5067 480.567 61.7467 480.127 61.92C479.7 62.0933 479.214 62.18 478.667 62.18Z" fill="#C3A742"/>
<path d="M504.671 50.66L504.051 52.66H507.971L507.351 50.66C507.125 49.9267 506.898 49.2 506.671 48.48C506.458 47.7467 506.251 47 506.051 46.24H505.971C505.758 47 505.545 47.7467 505.331 48.48C505.118 49.2 504.898 49.9267 504.671 50.66ZM500.671 58L505.091 44.88H506.971L511.391 58H509.631L508.391 54H503.631L502.371 58H500.671Z" fill="#33B6C4"/>
<path d="M516.663 50.66L516.043 52.66H519.963L519.343 50.66C519.117 49.9267 518.89 49.2 518.663 48.48C518.45 47.7467 518.243 47 518.043 46.24H517.963C517.75 47 517.537 47.7467 517.323 48.48C517.11 49.2 516.89 49.9267 516.663 50.66ZM512.663 58L517.083 44.88H518.963L523.383 58H521.623L520.383 54H515.623L514.363 58H512.663Z" fill="#6B8AB4"/>
<path d="M529.056 58L524.876 44.88H526.636L528.756 51.96C528.982 52.7467 529.189 53.4733 529.376 54.14C529.562 54.8067 529.776 55.5267 530.016 56.3H530.096C530.216 55.9133 530.329 55.5467 530.436 55.2C530.542 54.84 530.642 54.4867 530.736 54.14C530.842 53.7933 530.942 53.44 531.036 53.08C531.142 52.72 531.249 52.3467 531.356 51.96L533.456 44.88H535.156L530.996 58H529.056Z" fill="#A060A4"/>
<path d="M538.288 58V44.88H546.408V46.28H539.968V50.4H545.408V51.82H539.968V56.58H546.608V58H538.288Z" fill="#B162A7"/>
<path d="M572.123 45.3775C572.074 43.1392 571.151 41.0088 569.551 39.4428C567.95 37.8769 565.8 37 563.561 37C561.322 37 559.172 37.8769 557.572 39.4428C555.972 41.0088 555.048 43.1392 555 45.3775V61.0533C555 61.3057 555.1 61.5478 555.279 61.7262C555.457 61.9047 555.699 62.005 555.952 62.005C556.204 62.005 556.446 61.9047 556.625 61.7262C556.803 61.5478 556.904 61.3057 556.904 61.0533V58.2869C556.904 58.0345 557.004 57.7924 557.182 57.614C557.361 57.4355 557.603 57.3352 557.855 57.3352C558.108 57.3352 558.35 57.4355 558.528 57.614C558.707 57.7924 558.807 58.0345 558.807 58.2869V59.5964C558.807 59.8488 558.907 60.0908 559.086 60.2693C559.264 60.4478 559.506 60.5481 559.759 60.5481C560.011 60.5481 560.253 60.4478 560.432 60.2693C560.61 60.0908 560.711 59.8488 560.711 59.5964V58.2849C560.711 58.033 560.811 57.7914 560.989 57.6132C561.167 57.4351 561.409 57.335 561.661 57.335C561.913 57.335 562.154 57.4351 562.333 57.6132C562.511 57.7914 562.611 58.033 562.611 58.2849V58.6434C562.611 58.8958 562.711 59.1379 562.89 59.3164C563.068 59.4948 563.31 59.5951 563.563 59.5951C563.815 59.5951 564.057 59.4948 564.236 59.3164C564.414 59.1379 564.514 58.8958 564.514 58.6434V58.2849C564.514 58.0325 564.615 57.7904 564.793 57.612C564.972 57.4335 565.214 57.3332 565.466 57.3332C565.719 57.3332 565.961 57.4335 566.139 57.612C566.318 57.7904 566.418 58.0325 566.418 58.2849V59.5964C566.418 59.8488 566.518 60.0908 566.697 60.2693C566.875 60.4478 567.117 60.5481 567.37 60.5481C567.622 60.5481 567.864 60.4478 568.043 60.2693C568.221 60.0908 568.321 59.8488 568.321 59.5964V58.2849C568.321 58.033 568.422 57.7914 568.6 57.6132C568.778 57.4351 569.02 57.335 569.271 57.335C569.523 57.335 569.765 57.4351 569.943 57.6132C570.121 57.7914 570.222 58.033 570.222 58.2849V61.0513C570.222 61.3037 570.322 61.5458 570.5 61.7243C570.679 61.9027 570.921 62.003 571.173 62.003C571.426 62.003 571.668 61.9027 571.846 61.7243C572.025 61.5458 572.125 61.3037 572.125 61.0513V45.443C572.125 45.4212 572.124 45.3993 572.123 45.3775ZM560.404 46.747C560.048 46.7958 559.686 46.735 559.366 46.5725C559.046 46.41 558.783 46.1537 558.612 45.8378C558.442 45.5218 558.372 45.1614 558.411 44.8045C558.451 44.4477 558.599 44.1115 558.835 43.841C559.071 43.5704 559.384 43.3782 559.732 43.2903C560.08 43.2023 560.447 43.2227 560.783 43.3487C561.119 43.4747 561.409 43.7004 561.614 43.9955C561.818 44.2905 561.928 44.641 561.928 45.0001C561.955 45.4332 561.811 45.8598 561.525 46.1869C561.24 46.514 560.837 46.7153 560.404 46.747ZM563.63 49.2124C562.866 49.2124 562.247 48.7574 562.247 48.1959C562.247 47.6344 562.866 47.9734 563.63 47.9734C564.393 47.9734 565.013 47.6344 565.013 48.1959C565.013 48.7574 564.394 49.2134 563.63 49.2134V49.2124ZM566.72 46.747C566.364 46.7958 566.002 46.735 565.682 46.5725C565.362 46.41 565.099 46.1537 564.928 45.8378C564.757 45.5218 564.687 45.1614 564.727 44.8045C564.767 44.4477 564.915 44.1115 565.151 43.841C565.387 43.5704 565.7 43.3782 566.048 43.2903C566.396 43.2023 566.763 43.2227 567.099 43.3487C567.435 43.4747 567.725 43.7004 567.929 43.9955C568.134 44.2905 568.243 44.641 568.243 45.0001C568.271 45.4332 568.126 45.8598 567.841 46.1869C567.556 46.514 567.153 46.7153 566.72 46.747Z" fill="url(#paint0_linear)"/>
<path opacity="0.06" d="M555.126 44.0954C555.126 44.0954 556.782 38.8346 563.655 38.8866C572.185 38.9896 572.125 48.5437 572.125 48.5437C572.125 48.5437 572.894 41.847 568.894 38.8761C564.895 35.9053 561.51 37.2232 559.958 37.8057C558.405 38.3882 555.46 40.8591 555.126 44.0954Z" fill="white"/>
<path opacity="0.15" d="M556.215 41.1734C556.215 41.1734 558.996 38.1475 562.852 38.1075C566.709 38.0675 569.41 39.331 570.68 41.9318C571.484 43.7098 571.973 45.6138 572.126 47.5591C572.126 47.5591 572.895 41.8453 568.895 38.875C564.895 35.9046 561.511 37.2221 559.958 37.8045C558.406 38.387 557.308 39.6734 556.215 41.1734Z" fill="white"/>
<path opacity="0.21" d="M558.881 45.0013C558.881 45.0013 558.988 43.1334 560.404 43.1309C561.821 43.1284 561.928 45.0013 561.928 45.0013C561.928 45.0013 561.632 43.2544 560.404 43.2544C559.527 43.2544 558.841 44.6068 558.881 45.0013Z" fill="black"/>
<path opacity="0.21" d="M565.197 45.0013C565.197 45.0013 565.304 43.1334 566.72 43.1309C568.137 43.1284 568.244 45.0013 568.244 45.0013C568.244 45.0013 567.948 43.2544 566.72 43.2544C565.842 43.2544 565.157 44.6068 565.197 45.0013Z" fill="black"/>
<path opacity="0.1" d="M560.404 42.9043C559.907 42.9754 559.454 43.2302 559.136 43.6184C558.817 44.0066 558.655 44.5001 558.682 45.0017C558.659 45.4853 558.826 45.9585 559.148 46.32C559.47 46.6815 559.921 46.9023 560.404 46.9351C560.639 46.916 560.868 46.8508 561.077 46.7433C561.287 46.6357 561.473 46.488 561.625 46.3084C561.778 46.1288 561.893 45.921 561.965 45.6968C562.037 45.4726 562.064 45.2364 562.045 45.0017C562.045 43.6628 561.079 42.9043 560.404 42.9043ZM560.427 46.7196C559.471 46.7476 558.904 45.6797 558.904 44.9017C558.899 44.698 558.935 44.4954 559.009 44.3056C559.083 44.1158 559.194 43.9427 559.336 43.7963C559.478 43.6499 559.647 43.5333 559.835 43.4531C560.022 43.3729 560.224 43.3308 560.427 43.3293C561.377 43.3293 561.786 44.1237 561.786 44.9017C561.786 45.6797 561.383 46.6921 560.427 46.7196Z" fill="black"/>
<path opacity="0.1" d="M566.775 42.9043C566.278 42.9754 565.825 43.2302 565.507 43.6184C565.188 44.0066 565.026 44.5001 565.053 45.0017C565.03 45.4853 565.197 45.9585 565.519 46.32C565.841 46.6815 566.292 46.9023 566.775 46.9351C567.01 46.916 567.239 46.8508 567.448 46.7433C567.658 46.6357 567.844 46.488 567.996 46.3084C568.149 46.1288 568.264 45.921 568.336 45.6968C568.408 45.4726 568.435 45.2364 568.416 45.0017C568.416 43.6628 567.453 42.9043 566.775 42.9043ZM566.798 46.7196C565.842 46.7476 565.275 45.6797 565.275 44.9017C565.27 44.698 565.306 44.4954 565.38 44.3056C565.454 44.1158 565.565 43.9427 565.707 43.7963C565.849 43.6499 566.019 43.5333 566.206 43.4531C566.393 43.3729 566.595 43.3308 566.798 43.3293C567.748 43.3293 568.157 44.1237 568.157 44.9017C568.157 45.6797 567.753 46.6921 566.798 46.7196Z" fill="black"/>
<path opacity="0.1" d="M562.276 48.4028C562.383 48.6708 562.575 48.8957 562.824 49.0425C563.072 49.1893 563.362 49.2497 563.649 49.2143C563.918 49.2354 564.188 49.1761 564.423 49.0438C564.659 48.9116 564.85 48.7123 564.972 48.4713C564.936 48.7899 564.779 49.0827 564.535 49.29C564.29 49.4974 563.976 49.6037 563.656 49.5873C563.318 49.6011 562.989 49.4866 562.732 49.2668C562.476 49.047 562.313 48.7382 562.276 48.4028Z" fill="black"/>
<g opacity="0.37">
<path d="M571.351 50.9009V55.0052V50.9009Z" fill="black"/>
<path d="M571.351 50.9009V55.0052" stroke="white" stroke-miterlimit="10" stroke-linecap="round" stroke-linejoin="round"/>
</g>
<g opacity="0.37">
<path d="M571.351 48.7764V49.6068V48.7764Z" fill="black"/>
<path d="M571.351 48.7764V49.6068" stroke="white" stroke-miterlimit="10" stroke-linecap="round" stroke-linejoin="round"/>
</g>
<g opacity="0.37">
<path d="M555.791 47.7339V50.2018V47.7339Z" fill="black"/>
<path d="M555.791 47.7339V50.2018" stroke="white" stroke-miterlimit="10" stroke-linecap="round" stroke-linejoin="round"/>
</g>
<defs>
<linearGradient id="paint0_linear" x1="554.435" y1="60.8798" x2="576.425" y2="50.5525" gradientUnits="userSpaceOnUse">
<stop stop-color="#2EBAC6"/>
<stop offset="1" stop-color="#B6509E"/>
</linearGradient>
</defs>
</svg>
