<svg width="276" height="69" viewBox="0 0 276 69" fill="none" xmlns="http://www.w3.org/2000/svg">
<path d="M1.37969 27.8V26.38H10.9797V27.8H1.37969ZM13.3719 27.8V26.38H22.9719V27.8H13.3719ZM25.3641 27.8V26.38H34.9641V27.8H25.3641ZM37.3563 27.8V26.38H46.9563V27.8H37.3563ZM49.3484 27.8V26.38H58.9484V27.8H49.3484ZM61.3406 27.8V26.38H70.9406V27.8H61.3406ZM73.3328 27.8V26.38H82.9328V27.8H73.3328ZM85.325 27.8V26.38H94.925V27.8H85.325ZM97.3172 27.8V26.38H106.917V27.8H97.3172ZM109.309 27.8V26.38H118.909V27.8H109.309ZM121.302 27.8V26.38H130.902V27.8H121.302ZM133.294 27.8V26.38H142.894V27.8H133.294ZM145.286 27.8V26.38H154.886V27.8H145.286ZM157.278 27.8V26.38H166.878V27.8H157.278ZM169.27 27.8V26.38H178.87V27.8H169.27ZM181.263 27.8V26.38H190.863V27.8H181.263ZM193.255 27.8V26.38H202.855V27.8H193.255ZM205.247 27.8V26.38H214.847V27.8H205.247ZM217.239 27.8V26.38H226.839V27.8H217.239ZM229.231 27.8V26.38H238.831V27.8H229.231ZM241.223 27.8V26.38H250.823V27.8H241.223ZM253.216 27.8V26.38H262.816V27.8H253.216ZM265.208 27.8V26.38H274.808V27.8H265.208Z" fill="#94255A"/>
<path d="M10.0163 62.1V48.28H11.3763L11.5163 49.52H11.5763C12.0296 49.0933 12.5496 48.74 13.1363 48.46C13.7363 48.18 14.3363 48.04 14.9363 48.04C15.5896 48.04 16.1629 48.16 16.6563 48.4C17.1629 48.6267 17.5829 48.96 17.9163 49.4C18.2629 49.8267 18.5229 50.3467 18.6963 50.96C18.8696 51.56 18.9563 52.24 18.9563 53C18.9563 53.8267 18.8363 54.5667 18.5963 55.22C18.3563 55.86 18.0296 56.4067 17.6163 56.86C17.2163 57.3133 16.7496 57.66 16.2163 57.9C15.6829 58.1267 15.1229 58.24 14.5363 58.24C14.0829 58.24 13.5896 58.1333 13.0563 57.92C12.5363 57.6933 12.0629 57.38 11.6363 56.98H11.5763L11.6563 58.82V62.1H10.0163ZM14.2563 56.86C15.1363 56.86 15.8563 56.52 16.4163 55.84C16.9763 55.16 17.2563 54.2133 17.2563 53C17.2563 52.4667 17.2029 51.98 17.0963 51.54C16.9896 51.1 16.8229 50.7267 16.5963 50.42C16.3829 50.1 16.1029 49.8533 15.7563 49.68C15.4096 49.5067 14.9963 49.42 14.5163 49.42C14.0896 49.42 13.6296 49.54 13.1363 49.78C12.6563 50.0067 12.1629 50.3733 11.6563 50.88V55.72C12.1229 56.1333 12.5896 56.4267 13.0563 56.6C13.5229 56.7733 13.9229 56.86 14.2563 56.86ZM26.1484 58.24C25.5084 58.24 24.8951 58.1267 24.3084 57.9C23.7351 57.6733 23.2284 57.3467 22.7884 56.92C22.3484 56.48 21.9951 55.9467 21.7284 55.32C21.4751 54.68 21.3484 53.96 21.3484 53.16C21.3484 52.3467 21.4751 51.6267 21.7284 51C21.9951 50.36 22.3484 49.82 22.7884 49.38C23.2284 48.94 23.7351 48.6067 24.3084 48.38C24.8951 48.1533 25.5084 48.04 26.1484 48.04C26.7884 48.04 27.3951 48.1533 27.9684 48.38C28.5551 48.6067 29.0684 48.94 29.5084 49.38C29.9484 49.82 30.2951 50.36 30.5484 51C30.8151 51.6267 30.9484 52.3467 30.9484 53.16C30.9484 53.96 30.8151 54.68 30.5484 55.32C30.2951 55.9467 29.9484 56.48 29.5084 56.92C29.0684 57.3467 28.5551 57.6733 27.9684 57.9C27.3951 58.1267 26.7884 58.24 26.1484 58.24ZM26.1484 56.88C26.6151 56.88 27.0351 56.7933 27.4084 56.62C27.7951 56.4333 28.1218 56.18 28.3884 55.86C28.6684 55.5267 28.8818 55.1333 29.0284 54.68C29.1751 54.2267 29.2484 53.72 29.2484 53.16C29.2484 52.6 29.1751 52.0933 29.0284 51.64C28.8818 51.1733 28.6684 50.7733 28.3884 50.44C28.1218 50.1067 27.7951 49.8533 27.4084 49.68C27.0351 49.4933 26.6151 49.4 26.1484 49.4C25.6818 49.4 25.2551 49.4933 24.8684 49.68C24.4951 49.8533 24.1684 50.1067 23.8884 50.44C23.6218 50.7733 23.4151 51.1733 23.2684 51.64C23.1218 52.0933 23.0484 52.6 23.0484 53.16C23.0484 53.72 23.1218 54.2267 23.2684 54.68C23.4151 55.1333 23.6218 55.5267 23.8884 55.86C24.1684 56.18 24.4951 56.4333 24.8684 56.62C25.2551 56.7933 25.6818 56.88 26.1484 56.88ZM34.4206 58L32.3006 48.28H33.9406L35.1006 53.92C35.194 54.3867 35.274 54.8333 35.3406 55.26C35.4073 55.6867 35.474 56.1333 35.5406 56.6H35.6206C35.6873 56.1333 35.7673 55.6867 35.8606 55.26C35.9673 54.82 36.074 54.3733 36.1806 53.92L37.3806 48.88H39.0206L40.1806 53.92C40.2873 54.3867 40.394 54.8333 40.5006 55.26C40.6206 55.6867 40.714 56.1333 40.7806 56.6H40.8606C40.9406 56.1333 41.0073 55.6867 41.0606 55.26C41.1273 54.8333 41.2073 54.3867 41.3006 53.92L42.4606 48.28H43.9806L41.9006 58H39.7806L38.6606 53.36C38.5006 52.68 38.3406 51.72 38.1806 50.48H38.1006C37.9406 51.72 37.7806 52.68 37.6206 53.36L36.5406 58H34.4206ZM50.7328 58.24C49.9995 58.24 49.3128 58.1267 48.6728 57.9C48.0461 57.6733 47.4928 57.34 47.0128 56.9C46.5461 56.46 46.1728 55.9267 45.8928 55.3C45.6261 54.66 45.4928 53.9333 45.4928 53.12C45.4928 52.3333 45.6261 51.6267 45.8928 51C46.1728 50.3733 46.5395 49.84 46.9928 49.4C47.4595 48.96 47.9861 48.6267 48.5728 48.4C49.1728 48.16 49.7995 48.04 50.4528 48.04C51.1461 48.04 51.7661 48.1533 52.3128 48.38C52.8728 48.5933 53.3395 48.9 53.7128 49.3C54.0995 49.7 54.3928 50.18 54.5928 50.74C54.7928 51.3 54.8928 51.92 54.8928 52.6C54.8928 52.7867 54.8861 52.9667 54.8728 53.14C54.8595 53.3133 54.8395 53.4667 54.8128 53.6H47.1528C47.2595 54.7067 47.6595 55.54 48.3528 56.1C49.0595 56.6467 49.9195 56.92 50.9328 56.92C51.5195 56.92 52.0461 56.84 52.5128 56.68C52.9928 56.5067 53.4528 56.28 53.8928 56L54.4928 57.08C54.0128 57.4 53.4595 57.6733 52.8328 57.9C52.2195 58.1267 51.5195 58.24 50.7328 58.24ZM50.4928 49.34C50.0928 49.34 49.7061 49.4067 49.3328 49.54C48.9728 49.6733 48.6461 49.8667 48.3528 50.12C48.0595 50.36 47.8128 50.6667 47.6128 51.04C47.4128 51.4133 47.2728 51.84 47.1928 52.32H53.3928C53.3261 51.32 53.0328 50.5733 52.5128 50.08C52.0061 49.5867 51.3328 49.34 50.4928 49.34ZM59.045 58V48.28H60.405L60.545 50.58H60.605C61.1117 49.7933 61.7317 49.1733 62.465 48.72C63.2117 48.2667 64.0383 48.04 64.945 48.04C65.305 48.04 65.6383 48.0733 65.945 48.14C66.2517 48.1933 66.5583 48.2933 66.865 48.44L66.485 49.86C66.1383 49.74 65.845 49.6533 65.605 49.6C65.3783 49.5467 65.0717 49.52 64.685 49.52C63.9517 49.52 63.245 49.7333 62.565 50.16C61.8983 50.5733 61.2717 51.2867 60.685 52.3V58H59.045ZM74.7172 58.24C73.9839 58.24 73.2972 58.1267 72.6572 57.9C72.0305 57.6733 71.4772 57.34 70.9972 56.9C70.5305 56.46 70.1572 55.9267 69.8772 55.3C69.6105 54.66 69.4772 53.9333 69.4772 53.12C69.4772 52.3333 69.6105 51.6267 69.8772 51C70.1572 50.3733 70.5239 49.84 70.9772 49.4C71.4439 48.96 71.9705 48.6267 72.5572 48.4C73.1572 48.16 73.7839 48.04 74.4372 48.04C75.1305 48.04 75.7505 48.1533 76.2972 48.38C76.8572 48.5933 77.3239 48.9 77.6972 49.3C78.0839 49.7 78.3772 50.18 78.5772 50.74C78.7772 51.3 78.8772 51.92 78.8772 52.6C78.8772 52.7867 78.8705 52.9667 78.8572 53.14C78.8439 53.3133 78.8239 53.4667 78.7972 53.6H71.1372C71.2439 54.7067 71.6439 55.54 72.3372 56.1C73.0439 56.6467 73.9039 56.92 74.9172 56.92C75.5039 56.92 76.0305 56.84 76.4972 56.68C76.9772 56.5067 77.4372 56.28 77.8772 56L78.4772 57.08C77.9972 57.4 77.4439 57.6733 76.8172 57.9C76.2039 58.1267 75.5039 58.24 74.7172 58.24ZM74.4772 49.34C74.0772 49.34 73.6905 49.4067 73.3172 49.54C72.9572 49.6733 72.6305 49.8667 72.3372 50.12C72.0439 50.36 71.7972 50.6667 71.5972 51.04C71.3972 51.4133 71.2572 51.84 71.1772 52.32H77.3772C77.3105 51.32 77.0172 50.5733 76.4972 50.08C75.9905 49.5867 75.3172 49.34 74.4772 49.34ZM85.5294 58.24C84.8894 58.24 84.3094 58.1267 83.7894 57.9C83.2827 57.6733 82.8427 57.3467 82.4694 56.92C82.096 56.48 81.8094 55.9467 81.6094 55.32C81.4094 54.6933 81.3094 53.9733 81.3094 53.16C81.3094 52.3733 81.4294 51.6667 81.6694 51.04C81.9227 50.4 82.2494 49.86 82.6494 49.42C83.0627 48.98 83.536 48.64 84.0694 48.4C84.6027 48.16 85.156 48.04 85.7294 48.04C86.316 48.04 86.836 48.1533 87.2894 48.38C87.756 48.5933 88.2027 48.9 88.6294 49.3H88.6894L88.6094 47.5V43.76H90.2494V58H88.8894L88.7494 56.72H88.6894C88.2894 57.1333 87.8094 57.4933 87.2494 57.8C86.7027 58.0933 86.1294 58.24 85.5294 58.24ZM85.8694 56.86C86.8294 56.86 87.7427 56.3733 88.6094 55.4V50.56C88.1694 50.1467 87.736 49.8533 87.3094 49.68C86.896 49.5067 86.476 49.42 86.0494 49.42C85.6227 49.42 85.2227 49.5133 84.8494 49.7C84.4894 49.8733 84.1694 50.1267 83.8894 50.46C83.6227 50.78 83.4094 51.1667 83.2494 51.62C83.0894 52.0733 83.0094 52.58 83.0094 53.14C83.0094 54.3133 83.256 55.2267 83.7494 55.88C84.256 56.5333 84.9627 56.86 85.8694 56.86ZM110.494 58.24C110.027 58.24 109.52 58.1267 108.974 57.9C108.44 57.66 107.94 57.3333 107.474 56.92H107.414L107.274 58H105.954V43.76H107.594V47.64L107.534 49.52H107.594C108.034 49.0667 108.54 48.7067 109.114 48.44C109.7 48.1733 110.28 48.04 110.854 48.04C111.507 48.04 112.087 48.16 112.594 48.4C113.1 48.6267 113.52 48.96 113.854 49.4C114.2 49.8267 114.46 50.3467 114.634 50.96C114.807 51.56 114.894 52.2333 114.894 52.98C114.894 53.8067 114.774 54.5467 114.534 55.2C114.294 55.8533 113.967 56.4067 113.554 56.86C113.154 57.3133 112.687 57.66 112.154 57.9C111.62 58.1267 111.067 58.24 110.494 58.24ZM110.234 56.86C110.66 56.86 111.054 56.7733 111.414 56.6C111.774 56.4133 112.087 56.16 112.354 55.84C112.62 55.5067 112.827 55.1 112.974 54.62C113.12 54.14 113.194 53.6 113.194 53C113.194 52.4667 113.14 51.98 113.034 51.54C112.927 51.1 112.76 50.7267 112.534 50.42C112.32 50.1 112.04 49.8533 111.694 49.68C111.347 49.5067 110.934 49.42 110.454 49.42C110.027 49.42 109.567 49.54 109.074 49.78C108.594 50.0067 108.1 50.3733 107.594 50.88V55.72C108.06 56.1333 108.527 56.4267 108.994 56.6C109.474 56.7733 109.887 56.86 110.234 56.86ZM118.706 62.18C118.226 62.18 117.799 62.1133 117.426 61.98L117.766 60.68C117.899 60.72 118.039 60.7533 118.186 60.78C118.346 60.8067 118.499 60.82 118.646 60.82C119.326 60.82 119.879 60.62 120.306 60.22C120.733 59.8333 121.066 59.34 121.306 58.74L121.606 58.02L117.066 48.28H118.726L121.106 53.66C121.293 54.0867 121.486 54.5467 121.686 55.04C121.899 55.5333 122.106 56.0133 122.306 56.48H122.386C122.559 56.0133 122.733 55.54 122.906 55.06C123.093 54.5667 123.266 54.1 123.426 53.66L125.546 48.28H127.106L122.826 58.8C122.639 59.28 122.426 59.7267 122.186 60.14C121.946 60.5533 121.659 60.9067 121.326 61.2C120.993 61.5067 120.606 61.7467 120.166 61.92C119.739 62.0933 119.253 62.18 118.706 62.18Z" fill="#94255A"/>
<path d="M147.09 58.24C146.277 58.24 145.524 58.0867 144.83 57.78C144.137 57.4733 143.53 57.0333 143.01 56.46C142.504 55.8733 142.104 55.16 141.81 54.32C141.517 53.4667 141.37 52.5067 141.37 51.44C141.37 50.3867 141.517 49.44 141.81 48.6C142.104 47.76 142.51 47.0467 143.03 46.46C143.55 45.8733 144.17 45.4267 144.89 45.12C145.61 44.8 146.397 44.64 147.25 44.64C148.037 44.64 148.73 44.8 149.33 45.12C149.944 45.44 150.444 45.8133 150.83 46.24L149.89 47.3C149.544 46.94 149.157 46.6533 148.73 46.44C148.304 46.2133 147.81 46.1 147.25 46.1C146.624 46.1 146.05 46.2267 145.53 46.48C145.024 46.72 144.59 47.0733 144.23 47.54C143.87 47.9933 143.59 48.5467 143.39 49.2C143.19 49.8533 143.09 50.5867 143.09 51.4C143.09 52.2267 143.19 52.9733 143.39 53.64C143.59 54.2933 143.87 54.8533 144.23 55.32C144.59 55.7867 145.024 56.1467 145.53 56.4C146.05 56.6533 146.624 56.78 147.25 56.78C147.85 56.78 148.384 56.6533 148.85 56.4C149.33 56.1467 149.784 55.7867 150.21 55.32L151.15 56.34C150.63 56.94 150.044 57.4067 149.39 57.74C148.737 58.0733 147.97 58.24 147.09 58.24ZM153.923 58V43.76H155.563V47.64L155.463 49.94H155.523C156.029 49.3933 156.569 48.94 157.143 48.58C157.729 48.22 158.403 48.04 159.163 48.04C160.323 48.04 161.169 48.3733 161.703 49.04C162.249 49.6933 162.523 50.6667 162.523 51.96V58H160.883V52.18C160.883 51.26 160.709 50.58 160.363 50.14C160.016 49.6867 159.443 49.46 158.643 49.46C158.349 49.46 158.076 49.5 157.823 49.58C157.583 49.6467 157.343 49.7533 157.103 49.9C156.863 50.0467 156.616 50.2333 156.363 50.46C156.109 50.6733 155.843 50.9267 155.563 51.22V58H153.923ZM168.975 58.24C168.521 58.24 168.095 58.1733 167.695 58.04C167.295 57.92 166.941 57.7467 166.635 57.52C166.341 57.28 166.108 56.9933 165.935 56.66C165.761 56.3133 165.675 55.92 165.675 55.48C165.675 54.9333 165.801 54.46 166.055 54.06C166.321 53.6467 166.735 53.2933 167.295 53C167.868 52.7067 168.601 52.4667 169.495 52.28C170.388 52.0933 171.461 51.9467 172.715 51.84C172.701 51.5067 172.648 51.1933 172.555 50.9C172.461 50.6067 172.315 50.3533 172.115 50.14C171.915 49.9133 171.648 49.7333 171.315 49.6C170.995 49.4667 170.601 49.4 170.135 49.4C169.495 49.4 168.881 49.5267 168.295 49.78C167.708 50.02 167.188 50.28 166.735 50.56L166.095 49.44C166.335 49.28 166.615 49.12 166.935 48.96C167.268 48.7867 167.615 48.6333 167.975 48.5C168.348 48.3667 168.741 48.26 169.155 48.18C169.568 48.0867 169.988 48.04 170.415 48.04C171.748 48.04 172.735 48.4067 173.375 49.14C174.028 49.86 174.355 50.8267 174.355 52.04V58H173.015L172.875 56.68H172.815C172.268 57.1067 171.661 57.4733 170.995 57.78C170.341 58.0867 169.668 58.24 168.975 58.24ZM169.415 56.92C169.975 56.92 170.521 56.8 171.055 56.56C171.601 56.3067 172.155 55.9467 172.715 55.48V52.92C171.675 53 170.801 53.1133 170.095 53.26C169.401 53.4067 168.841 53.5867 168.415 53.8C168.001 54 167.708 54.2333 167.535 54.5C167.361 54.7533 167.275 55.04 167.275 55.36C167.275 55.64 167.335 55.88 167.455 56.08C167.575 56.2667 167.728 56.4267 167.915 56.56C168.115 56.68 168.341 56.7733 168.595 56.84C168.861 56.8933 169.135 56.92 169.415 56.92ZM182.367 58V49.62H177.847V48.28H184.007V58H182.367ZM183.007 46.24C182.634 46.24 182.32 46.1267 182.067 45.9C181.814 45.66 181.687 45.3467 181.687 44.96C181.687 44.5733 181.814 44.2667 182.067 44.04C182.32 43.8 182.634 43.68 183.007 43.68C183.38 43.68 183.694 43.8 183.947 44.04C184.2 44.2667 184.327 44.5733 184.327 44.96C184.327 45.3467 184.2 45.66 183.947 45.9C183.694 46.1267 183.38 46.24 183.007 46.24ZM189.899 58V48.28H191.259L191.399 49.94H191.479C191.986 49.3933 192.532 48.94 193.119 48.58C193.706 48.22 194.379 48.04 195.139 48.04C196.299 48.04 197.146 48.3733 197.679 49.04C198.226 49.6933 198.499 50.6667 198.499 51.96V58H196.859V52.18C196.859 51.26 196.686 50.58 196.339 50.14C195.992 49.6867 195.419 49.46 194.619 49.46C194.326 49.46 194.052 49.5 193.799 49.58C193.559 49.6467 193.319 49.7533 193.079 49.9C192.839 50.0467 192.592 50.2333 192.339 50.46C192.086 50.6733 191.819 50.9267 191.539 51.22V58H189.899ZM208.171 58.24C207.131 58.24 206.338 57.9467 205.791 57.36C205.245 56.7733 204.971 55.9 204.971 54.74V45.1H201.511V43.76H206.611V54.86C206.611 55.58 206.785 56.1 207.131 56.42C207.478 56.7267 207.945 56.88 208.531 56.88C209.105 56.88 209.711 56.7333 210.351 56.44L210.771 57.66C210.318 57.8467 209.905 57.9867 209.531 58.08C209.158 58.1867 208.705 58.24 208.171 58.24ZM218.343 58V49.62H213.823V48.28H219.983V58H218.343ZM218.983 46.24C218.61 46.24 218.297 46.1267 218.043 45.9C217.79 45.66 217.663 45.3467 217.663 44.96C217.663 44.5733 217.79 44.2667 218.043 44.04C218.297 43.8 218.61 43.68 218.983 43.68C219.357 43.68 219.67 43.8 219.923 44.04C220.177 44.2667 220.303 44.5733 220.303 44.96C220.303 45.3467 220.177 45.66 219.923 45.9C219.67 46.1267 219.357 46.24 218.983 46.24ZM225.876 58V48.28H227.236L227.376 49.94H227.456C227.962 49.3933 228.509 48.94 229.096 48.58C229.682 48.22 230.356 48.04 231.116 48.04C232.276 48.04 233.122 48.3733 233.656 49.04C234.202 49.6933 234.476 50.6667 234.476 51.96V58H232.836V52.18C232.836 51.26 232.662 50.58 232.316 50.14C231.969 49.6867 231.396 49.46 230.596 49.46C230.302 49.46 230.029 49.5 229.776 49.58C229.536 49.6467 229.296 49.7533 229.056 49.9C228.816 50.0467 228.569 50.2333 228.316 50.46C228.062 50.6733 227.796 50.9267 227.516 51.22V58H225.876ZM238.128 58V43.76H239.768V53.4H239.848L245.088 48.28H246.968L243.088 52.1L247.488 58H245.648L242.068 53.1L239.768 55.36V58H238.128Z" fill="#2A5ADA"/>
<g clip-path="url(#clip0)">
<path d="M263.404 38L261.202 39.2661L255.202 42.7339L253 44V56L255.202 57.2661L261.257 60.7339L263.459 62L265.661 60.7339L271.606 57.2661L273.807 56V44L271.606 42.7339L265.606 39.2661L263.404 38ZM257.404 53.4679V46.5321L263.404 43.0642L269.404 46.5321V53.4679L263.404 56.9358L257.404 53.4679Z" fill="#2A5ADA"/>
</g>
<defs>
<clipPath id="clip0">
<rect width="20.8073" height="24" fill="white" transform="translate(253 38)"/>
</clipPath>
</defs>
</svg>
