<svg width="235" height="20" viewBox="0 0 235 20" fill="none" xmlns="http://www.w3.org/2000/svg">
<path d="M0.84 16V2.96H9.48V5.44H3.8V8.06H8.62V10.52H3.8V13.52H9.68V16H0.84Z" fill="#FF0000"/>
<path d="M15.4722 16.24C14.9655 16.24 14.5122 16.16 14.1122 16C13.7122 15.8533 13.3722 15.6467 13.0922 15.38C12.8122 15.1 12.5922 14.78 12.4322 14.42C12.2855 14.06 12.2122 13.6667 12.2122 13.24C12.2122 12.68 12.3322 12.1933 12.5722 11.78C12.8122 11.3533 13.1922 10.9933 13.7122 10.7C14.2455 10.4067 14.9255 10.1733 15.7522 10C16.5789 9.81333 17.5789 9.68667 18.7522 9.62C18.6989 9.16667 18.4989 8.81333 18.1522 8.56C17.8189 8.30667 17.3122 8.18 16.6322 8.18C16.1522 8.18 15.6655 8.26667 15.1722 8.44C14.6922 8.6 14.1722 8.82 13.6122 9.1L12.5722 7.18C13.2522 6.79333 13.9789 6.47333 14.7522 6.22C15.5389 5.96667 16.3589 5.84 17.2122 5.84C18.5989 5.84 19.6922 6.20667 20.4922 6.94C21.2922 7.67333 21.6922 8.8 21.6922 10.32V16H19.2922L19.0722 14.88H18.9922C18.4855 15.2667 17.9322 15.5933 17.3322 15.86C16.7322 16.1133 16.1122 16.24 15.4722 16.24ZM16.4122 13.96C16.8522 13.96 17.2655 13.8733 17.6522 13.7C18.0389 13.5133 18.4055 13.2867 18.7522 13.02V11.38C18.0189 11.42 17.4122 11.4867 16.9322 11.58C16.4522 11.6733 16.0722 11.7933 15.7922 11.94C15.5122 12.0733 15.3122 12.2333 15.1922 12.42C15.0855 12.6067 15.0322 12.8067 15.0322 13.02C15.0322 13.34 15.1522 13.58 15.3922 13.74C15.6455 13.8867 15.9855 13.96 16.4122 13.96Z" fill="#FF5C00"/>
<path d="M25.3044 16V6.08H27.7044L27.9444 8.24H28.0044C28.4977 7.42667 29.091 6.82667 29.7844 6.44C30.4777 6.04 31.2244 5.84 32.0244 5.84C32.4644 5.84 32.8177 5.87333 33.0844 5.94C33.3644 6.00667 33.651 6.10667 33.9444 6.24L33.3444 8.7C33.0377 8.60667 32.7577 8.54 32.5044 8.5C32.2644 8.44667 31.9577 8.42 31.5844 8.42C30.971 8.42 30.3644 8.6 29.7644 8.96C29.1777 9.32 28.671 9.94667 28.2444 10.84V16H25.3044Z" fill="#FF7C00"/>
<path d="M36.4166 16V6.08H38.8166L39.0366 7.4H39.1166C39.5432 6.97333 40.0299 6.60667 40.5766 6.3C41.1366 5.99333 41.7899 5.84 42.5366 5.84C43.6566 5.84 44.4766 6.2 44.9966 6.92C45.5166 7.64 45.7766 8.62667 45.7766 9.88V16H42.8366V10.26C42.8366 9.59333 42.7299 9.10667 42.5166 8.8C42.3032 8.49333 41.9232 8.34 41.3766 8.34C40.9766 8.34 40.6232 8.42667 40.3166 8.6C40.0232 8.77333 39.7032 9.03333 39.3566 9.38V16H36.4166Z" fill="#FF9900"/>
<path d="M60.6609 16L59.0409 6.08H61.8809L62.5009 10.68C62.5676 11.1733 62.6209 11.66 62.6609 12.14C62.7009 12.62 62.7543 13.1133 62.8209 13.62H62.8809C62.9476 13.1133 63.0143 12.6133 63.0809 12.12C63.1476 11.6267 63.2343 11.1467 63.3409 10.68L63.9609 7.4H66.1009L66.7409 10.68C66.8476 11.1733 66.9409 11.66 67.0209 12.14C67.1009 12.62 67.1743 13.1133 67.2409 13.62H67.3209C67.3876 13.1133 67.4343 12.62 67.4609 12.14C67.5009 11.66 67.5476 11.1733 67.6009 10.68L68.1609 6.08H70.8809L69.3609 16H65.9009L65.3609 12.78C65.2943 12.3533 65.2343 11.9 65.1809 11.42C65.1276 10.94 65.0676 10.4133 65.0009 9.84H64.9209C64.8809 10.2667 64.8343 10.7067 64.7809 11.16C64.7276 11.6133 64.6609 12.1533 64.5809 12.78L64.0609 16H60.6609Z" fill="#FFA800"/>
<path d="M72.3931 16V1.98H75.3331V5.42L75.1731 7.32H75.2331C75.6065 6.93333 76.0598 6.59333 76.5931 6.3C77.1265 5.99333 77.7731 5.84 78.5331 5.84C79.6531 5.84 80.4665 6.2 80.9731 6.92C81.4931 7.64 81.7531 8.62667 81.7531 9.88V16H78.8131V10.26C78.8131 9.59333 78.7065 9.10667 78.4931 8.8C78.2798 8.49333 77.8998 8.34 77.3531 8.34C76.9531 8.34 76.5998 8.42667 76.2931 8.6C75.9998 8.77333 75.6798 9.03333 75.3331 9.38V16H72.3931Z" fill="#FFBE00"/>
<path d="M88.5053 16V8.38H84.5253V6.08H91.4453V16H88.5053ZM89.8453 4.52C89.272 4.52 88.7986 4.36 88.4253 4.04C88.0653 3.72 87.8853 3.28667 87.8853 2.74C87.8853 2.19333 88.0653 1.75333 88.4253 1.42C88.7986 1.07333 89.272 0.899999 89.8453 0.899999C90.4186 0.899999 90.8853 1.07333 91.2453 1.42C91.6186 1.75333 91.8053 2.19333 91.8053 2.74C91.8053 3.28667 91.6186 3.72 91.2453 4.04C90.8853 4.36 90.4186 4.52 89.8453 4.52Z" fill="#E6D329"/>
<path d="M102.838 16.24C101.584 16.24 100.638 15.8733 99.9975 15.14C99.3708 14.3933 99.0575 13.3867 99.0575 12.12V4.3H95.9375V1.98H101.998V12.24C101.998 12.5467 102.038 12.8067 102.118 13.02C102.211 13.22 102.331 13.3867 102.478 13.52C102.638 13.64 102.811 13.7267 102.998 13.78C103.198 13.8333 103.404 13.86 103.618 13.86C103.844 13.86 104.078 13.84 104.318 13.8C104.571 13.7467 104.851 13.66 105.158 13.54L105.818 15.7C105.551 15.78 105.304 15.8533 105.078 15.92C104.851 15.9867 104.624 16.04 104.398 16.08C104.171 16.1333 103.931 16.1733 103.678 16.2C103.424 16.2267 103.144 16.24 102.838 16.24Z" fill="#61CC1A"/>
<path d="M113.53 16.24C112.756 16.24 112.03 16.1267 111.35 15.9C110.683 15.66 110.103 15.32 109.61 14.88C109.116 14.44 108.73 13.9 108.45 13.26C108.17 12.6067 108.03 11.8667 108.03 11.04C108.03 10.2267 108.17 9.5 108.45 8.86C108.743 8.20667 109.13 7.66 109.61 7.22C110.09 6.76667 110.636 6.42667 111.25 6.2C111.876 5.96 112.523 5.84 113.19 5.84C113.95 5.84 114.623 5.96 115.21 6.2C115.796 6.44 116.283 6.77333 116.67 7.2C117.07 7.62667 117.37 8.13333 117.57 8.72C117.77 9.29333 117.87 9.92 117.87 10.6C117.87 10.8667 117.85 11.1267 117.81 11.38C117.783 11.62 117.756 11.8 117.73 11.92H110.97C111.116 12.64 111.443 13.1667 111.95 13.5C112.456 13.8333 113.116 14 113.93 14C114.383 14 114.81 13.94 115.21 13.82C115.623 13.7 116.05 13.5267 116.49 13.3L117.47 15.08C116.896 15.44 116.263 15.7267 115.57 15.94C114.876 16.14 114.196 16.24 113.53 16.24ZM113.29 8.08C112.703 8.08 112.21 8.23333 111.81 8.54C111.423 8.84667 111.156 9.31333 111.01 9.94H115.25C115.103 8.7 114.45 8.08 113.29 8.08Z" fill="#2BB772"/>
<path d="M133.774 19.88C133.481 19.88 133.207 19.86 132.954 19.82C132.701 19.7933 132.467 19.7467 132.254 19.68L132.774 17.44C133.027 17.52 133.287 17.56 133.554 17.56C134.127 17.56 134.574 17.44 134.894 17.2C135.227 16.96 135.474 16.6467 135.634 16.26L135.834 15.74L131.534 6.08H134.454L136.114 10.34C136.301 10.8067 136.474 11.2933 136.634 11.8C136.794 12.2933 136.954 12.8 137.114 13.32H137.194C137.327 12.8267 137.474 12.3333 137.634 11.84C137.794 11.3333 137.947 10.8333 138.094 10.34L139.554 6.08H142.334L138.414 16.1C138.174 16.7267 137.914 17.2733 137.634 17.74C137.354 18.22 137.034 18.6133 136.674 18.92C136.314 19.24 135.894 19.48 135.414 19.64C134.947 19.8 134.401 19.88 133.774 19.88Z" fill="#25AB9E"/>
<path d="M148.906 16.24C148.253 16.24 147.62 16.1267 147.006 15.9C146.406 15.66 145.866 15.32 145.386 14.88C144.92 14.44 144.546 13.9 144.266 13.26C143.986 12.6067 143.846 11.8667 143.846 11.04C143.846 10.2133 143.986 9.48 144.266 8.84C144.546 8.18667 144.92 7.64 145.386 7.2C145.866 6.76 146.406 6.42667 147.006 6.2C147.62 5.96 148.253 5.84 148.906 5.84C149.56 5.84 150.186 5.96 150.786 6.2C151.4 6.42667 151.94 6.76 152.406 7.2C152.886 7.64 153.266 8.18667 153.546 8.84C153.826 9.48 153.966 10.2133 153.966 11.04C153.966 11.8667 153.826 12.6067 153.546 13.26C153.266 13.9 152.886 14.44 152.406 14.88C151.94 15.32 151.4 15.66 150.786 15.9C150.186 16.1267 149.56 16.24 148.906 16.24ZM148.906 13.86C149.586 13.86 150.093 13.6067 150.426 13.1C150.773 12.5933 150.946 11.9067 150.946 11.04C150.946 10.1733 150.773 9.48667 150.426 8.98C150.093 8.47333 149.586 8.22 148.906 8.22C148.226 8.22 147.713 8.47333 147.366 8.98C147.033 9.48667 146.866 10.1733 146.866 11.04C146.866 11.9067 147.033 12.5933 147.366 13.1C147.713 13.6067 148.226 13.86 148.906 13.86Z" fill="#1396D8"/>
<path d="M159.358 16.24C158.225 16.24 157.405 15.88 156.898 15.16C156.392 14.44 156.138 13.4533 156.138 12.2V6.08H159.078V11.82C159.078 12.4867 159.178 12.9733 159.378 13.28C159.578 13.5867 159.958 13.74 160.518 13.74C160.892 13.74 161.218 13.66 161.498 13.5C161.792 13.34 162.112 13.04 162.458 12.6V6.08H165.398V16H162.998L162.778 14.58H162.698C162.258 15.0867 161.772 15.4933 161.238 15.8C160.705 16.0933 160.078 16.24 159.358 16.24Z" fill="#0085FE"/>
<path d="M180.323 19.68V6.08H182.723L182.943 7.08H183.003C183.403 6.72 183.863 6.42667 184.383 6.2C184.903 5.96 185.429 5.84 185.963 5.84C186.576 5.84 187.129 5.96 187.623 6.2C188.116 6.44 188.536 6.78 188.883 7.22C189.229 7.66 189.489 8.19333 189.663 8.82C189.849 9.43333 189.943 10.12 189.943 10.88C189.943 11.7333 189.823 12.4933 189.583 13.16C189.343 13.8133 189.023 14.3733 188.623 14.84C188.223 15.2933 187.763 15.64 187.243 15.88C186.736 16.12 186.203 16.24 185.643 16.24C184.736 16.24 183.923 15.88 183.203 15.16H183.123L183.263 16.78V19.68H180.323ZM184.963 13.84C185.523 13.84 185.989 13.6133 186.363 13.16C186.736 12.6933 186.923 11.9467 186.923 10.92C186.923 9.13333 186.316 8.24 185.103 8.24C184.476 8.24 183.863 8.54667 183.263 9.16V13.18C183.543 13.42 183.829 13.5933 184.123 13.7C184.429 13.7933 184.709 13.84 184.963 13.84Z" fill="#0756FF"/>
<path d="M198.775 16.24C197.522 16.24 196.575 15.8733 195.935 15.14C195.308 14.3933 194.995 13.3867 194.995 12.12V4.3H191.875V1.98H197.935V12.24C197.935 12.5467 197.975 12.8067 198.055 13.02C198.148 13.22 198.268 13.3867 198.415 13.52C198.575 13.64 198.748 13.7267 198.935 13.78C199.135 13.8333 199.342 13.86 199.555 13.86C199.782 13.86 200.015 13.84 200.255 13.8C200.508 13.7467 200.788 13.66 201.095 13.54L201.755 15.7C201.488 15.78 201.242 15.8533 201.015 15.92C200.788 15.9867 200.562 16.04 200.335 16.08C200.108 16.1333 199.868 16.1733 199.615 16.2C199.362 16.2267 199.082 16.24 198.775 16.24Z" fill="#9900FF"/>
<path d="M207.347 16.24C206.841 16.24 206.387 16.16 205.987 16C205.587 15.8533 205.247 15.6467 204.967 15.38C204.687 15.1 204.467 14.78 204.307 14.42C204.161 14.06 204.087 13.6667 204.087 13.24C204.087 12.68 204.207 12.1933 204.447 11.78C204.687 11.3533 205.067 10.9933 205.587 10.7C206.121 10.4067 206.801 10.1733 207.627 10C208.454 9.81333 209.454 9.68667 210.627 9.62C210.574 9.16667 210.374 8.81333 210.027 8.56C209.694 8.30667 209.187 8.18 208.507 8.18C208.027 8.18 207.541 8.26667 207.047 8.44C206.567 8.6 206.047 8.82 205.487 9.1L204.447 7.18C205.127 6.79333 205.854 6.47333 206.627 6.22C207.414 5.96667 208.234 5.84 209.087 5.84C210.474 5.84 211.567 6.20667 212.367 6.94C213.167 7.67333 213.567 8.8 213.567 10.32V16H211.167L210.947 14.88H210.867C210.361 15.2667 209.807 15.5933 209.207 15.86C208.607 16.1133 207.987 16.24 207.347 16.24ZM208.287 13.96C208.727 13.96 209.141 13.8733 209.527 13.7C209.914 13.5133 210.281 13.2867 210.627 13.02V11.38C209.894 11.42 209.287 11.4867 208.807 11.58C208.327 11.6733 207.947 11.7933 207.667 11.94C207.387 12.0733 207.187 12.2333 207.067 12.42C206.961 12.6067 206.907 12.8067 206.907 13.02C206.907 13.34 207.027 13.58 207.267 13.74C207.521 13.8867 207.861 13.96 208.287 13.96Z" fill="#B800FF"/>
<path d="M217.719 19.88C217.426 19.88 217.153 19.86 216.899 19.82C216.646 19.7933 216.413 19.7467 216.199 19.68L216.719 17.44C216.973 17.52 217.233 17.56 217.499 17.56C218.073 17.56 218.519 17.44 218.839 17.2C219.173 16.96 219.419 16.6467 219.579 16.26L219.779 15.74L215.479 6.08H218.399L220.059 10.34C220.246 10.8067 220.419 11.2933 220.579 11.8C220.739 12.2933 220.899 12.8 221.059 13.32H221.139C221.273 12.8267 221.419 12.3333 221.579 11.84C221.739 11.3333 221.893 10.8333 222.039 10.34L223.499 6.08H226.279L222.359 16.1C222.119 16.7267 221.859 17.2733 221.579 17.74C221.299 18.22 220.979 18.6133 220.619 18.92C220.259 19.24 219.839 19.48 219.359 19.64C218.893 19.8 218.346 19.88 217.719 19.88Z" fill="#E800FF"/>
<path d="M231.892 10.9L231.492 5.26L231.392 2.6H234.312L234.212 5.26L233.812 10.9H231.892ZM232.852 16.24C232.278 16.24 231.798 16.0533 231.412 15.68C231.038 15.2933 230.852 14.8 230.852 14.2C230.852 13.6 231.038 13.12 231.412 12.76C231.798 12.3867 232.278 12.2 232.852 12.2C233.425 12.2 233.898 12.3867 234.272 12.76C234.658 13.12 234.852 13.6 234.852 14.2C234.852 14.8 234.658 15.2933 234.272 15.68C233.898 16.0533 233.425 16.24 232.852 16.24Z" fill="#FD00CA"/>
</svg>
