<svg width="40" height="40" viewBox="0 0 40 40" fill="none" xmlns="http://www.w3.org/2000/svg">
<path d="M20 1.33388C21.2672 1.33388 22.5327 1.46076 23.7625 1.71289C24.9597 1.95852 26.1391 2.32452 27.2647 2.79951C28.3709 3.268 29.4364 3.84547 30.4351 4.52054C31.4242 5.1891 32.353 5.95527 33.1989 6.80114C34.0431 7.64538 34.8109 8.57584 35.4795 9.56486C36.1529 10.562 36.732 11.6291 37.2005 12.7353C37.6771 13.8609 38.0431 15.0386 38.2871 16.2375C38.5392 17.4673 38.6661 18.7328 38.6661 20C38.6661 21.2672 38.5392 22.5327 38.2871 23.7625C38.0415 24.9597 37.6755 26.1391 37.2005 27.2647C36.732 28.3709 36.1545 29.4364 35.4795 30.4351C34.8109 31.4242 34.0447 32.353 33.1989 33.1989C32.3546 34.0431 31.4242 34.8109 30.4351 35.4795C29.438 36.1529 28.3709 36.732 27.2647 37.2005C26.1391 37.6771 24.9614 38.0431 23.7625 38.2871C22.5327 38.5392 21.2672 38.6661 20 38.6661C18.7328 38.6661 17.4673 38.5392 16.2359 38.2871C15.0386 38.0415 13.8593 37.6755 12.7336 37.2005C11.6275 36.732 10.562 36.1545 9.56324 35.4795C8.57422 34.8109 7.64538 34.0447 6.79951 33.1989C5.95527 32.3546 5.1891 31.4242 4.52054 30.4351C3.84709 29.438 3.268 28.3709 2.79951 27.2647C2.3229 26.1391 1.95689 24.9614 1.71289 23.7625C1.46076 22.5344 1.33388 21.2672 1.33388 20C1.33388 18.7328 1.46076 17.4673 1.71289 16.2375C1.95852 15.0403 2.32452 13.8609 2.79951 12.7353C3.268 11.6291 3.84547 10.5636 4.52054 9.56486C5.1891 8.57584 5.95527 7.64538 6.80114 6.80114C7.64538 5.95689 8.57584 5.1891 9.56486 4.52054C10.562 3.84709 11.6291 3.268 12.7353 2.79951C13.8609 2.3229 15.0386 1.95689 16.2375 1.71289C17.4673 1.46076 18.7328 1.33388 20 1.33388ZM20 0C8.95486 0 0 8.95486 0 20C0 31.0451 8.95486 40 20 40C31.0451 40 40 31.0451 40 20C40 8.95486 31.0451 0 20 0Z" fill="#FFCE45"/>
<path d="M19.9996 4.34644L35.3196 19.6665L19.9996 34.9865L4.67951 19.6665L19.9996 4.34644Z" fill="#FFCE45"/>
<path d="M19.9999 24.6669L4.66684 19.6665L19.9999 4.34644L35.333 19.6665L19.9999 24.6669Z" fill="#FEBE44"/>
<path d="M10.0008 18.6662H17.0004L20 15.3331L23.333 18.6662H30.3326L20 7.49902L10.0008 18.6662Z" fill="white"/>
<path opacity="0.42" d="M19.9996 34.9865V4.34644L35.3197 19.6665L19.9996 34.9865Z" fill="#D9A547"/>
</svg>
