<svg width="450" height="389" viewBox="0 0 450 389" fill="none" xmlns="http://www.w3.org/2000/svg">
<path d="M15 269H20V264H10V269H12.5H15Z" fill="#0E0C15"/>
<path d="M10 274V269H5V274H7.5H10ZM25 264H30V259H20V264H22.5H25Z" fill="#0E0C15"/>
<path d="M35 259H55V254H30V259H32.5H35ZM75 274H80V269H75V271.5V274Z" fill="#0E0C15"/>
<path d="M82.5 274H80V371.5H75V376.5H85V274H82.5ZM55 264H65V259H55V261.5V264Z" fill="#0E0C15"/>
<path d="M65 269H75V264H65V266.5V269ZM5 371.5V274H0V376.5H10V371.5H7.5H5Z" fill="#0E0C15"/>
<path d="M22.5 366.5H10V371.5H22.5V369V366.5Z" fill="#0E0C15"/>
<path d="M30 371.5H22.5V376.5H35V371.5H32.5H30ZM75 366.5H62.5V371.5H75V369V366.5Z" fill="#0E0C15"/>
<path d="M50 366.5H35V371.5H50V369V366.5Z" fill="#0E0C15"/>
<path d="M57.5 371.5H50V376.5H62.5V371.5H60H57.5Z" fill="#0E0C15"/>
<path d="M7.5 346.5V361.5H12.5V359H17.5V361.5H22.5V366.5H10V371.5H5V274H10V276.5H7.5V341.5V346.5Z" fill="#DCDCDC"/>
<path d="M30 366.5H22.5V371.5H35V366.5H32.5H30ZM57.5 366.5H50V371.5H62.5V366.5H60H57.5Z" fill="#DCDCDC"/>
<path d="M50 361.5H45V359H40V361.5H35V366.5H50V364V361.5ZM25 266.5H30V264H20V266.5H22.5H25ZM15 271.5H20V269H10V271.5H12.5H15ZM75 349V361.5H72.5V359H67.5V361.5H62.5V366.5H75V371.5H80V274H75V346.5V349Z" fill="#DCDCDC"/>
<path d="M55 259H30V261.5H42.5V264H55V261.5V259ZM75 269H65V274H75V271.5V269Z" fill="#DCDCDC"/>
<path d="M65 264H55V269H65V266.5V264Z" fill="#DCDCDC"/>
<path d="M72.5 274H65V269H55V264H42.5V261.5H30V266.5H20V271.5H10V276.5H7.5V361.5H12.5V359H17.5V361.5H22.5V366.5H35V361.5H40V359H45V361.5H50V366.5H62.5V361.5H67.5V359H72.5V361.5H75V274H72.5Z" fill="white"/>
<path d="M15 319V324H20V319H17.5H15ZM67.5 319H65V324H70V319H67.5Z" fill="#F696C6"/>
<path d="M35 319H30V324H35V321.5V319Z" fill="#0E0C15"/>
<path d="M45 324H35V329H50V324H47.5H45Z" fill="#0E0C15"/>
<path d="M52.5 319H50V324H55V319H52.5Z" fill="#0E0C15"/>
<path d="M10 344H12.5V346.5H10V344ZM12.5 329H15V331.5H12.5V329Z" fill="#0E0C15"/>
<path d="M15 331.5H17.5V334H15V331.5ZM27.5 339V349H30V339H27.5ZM15 346.5H12.5V349H17.5V346.5H15Z" fill="#0E0C15"/>
<path d="M22.5 349H17.5V351.5H27.5V349H25H22.5ZM25 336.5H22.5V339H27.5V336.5H25Z" fill="#0E0C15"/>
<path d="M20 334H17.5V336.5H22.5V334H20Z" fill="#0E0C15"/>
<path d="M10 346.5H12.5V349H10V346.5ZM22.5 351.5H17.5V354H27.5V351.5H25H22.5Z" fill="#DCDCDC"/>
<path d="M30 341.5V349H32.5V341.5H30ZM15 349H12.5V351.5H17.5V349H15Z" fill="#DCDCDC"/>
<path d="M27.5 349H30V351.5H27.5V349ZM10 341.5H7.5V346.5H10V344V341.5Z" fill="#DCDCDC"/>
<path d="M72.5 344H75V346.5H72.5V344ZM70 329H72.5V331.5H70V329Z" fill="#0E0C15"/>
<path d="M67.5 331.5H70V334H67.5V331.5Z" fill="#0E0C15"/>
<path d="M67.5 336.5V334H62.5V336.5H65H67.5ZM67.5 346.5V349H72.5V346.5H70H67.5Z" fill="#0E0C15"/>
<path d="M62.5 349H57.5V351.5H67.5V349H65H62.5Z" fill="#0E0C15"/>
<path d="M57.5 344V339H55V349H57.5V346.5V344Z" fill="#0E0C15"/>
<path d="M62.5 339V336.5H57.5V339H60H62.5Z" fill="#0E0C15"/>
<path d="M67.5 349V351.5H72.5V349H70H67.5ZM55 344V341.5H52.5V349H55V346.5V344Z" fill="#DCDCDC"/>
<path d="M62.5 351.5H57.5V354H67.5V351.5H65H62.5Z" fill="#DCDCDC"/>
<path d="M55 349H57.5V351.5H55V349ZM72.5 346.5H75V349H72.5V346.5Z" fill="#DCDCDC"/>
<path opacity="0.25" d="M25 384H10V386.5H12.5V389H72.5V386.5H75V384H72.5H25Z" fill="black"/>
<path d="M45 279H37.5V281.5H47.5V279H45Z" fill="#1B182A"/>
<path d="M47.5 284V289H50V281.5H47.5V284Z" fill="#1B182A"/>
<path d="M42.5 289H35V291.5H47.5V289H45H42.5ZM37.5 274V271.5H35V279H37.5V276.5V274Z" fill="#1B182A"/>
<path d="M47.5 269H37.5V271.5H50V269H47.5Z" fill="#1B182A"/>
<path d="M47.5 271.5H50V274H47.5V271.5Z" fill="#A4A3AA"/>
<path d="M45 274H47.5V276.5H45V274Z" fill="#A4A3AA"/>
<path d="M42.5 276.5H45V279H42.5V276.5ZM37.5 284H40V286.5H37.5V284Z" fill="#A4A3AA"/>
<path d="M40 281.5H42.5V284H40V281.5ZM35 286.5H37.5V289H35V286.5Z" fill="#A4A3AA"/>
<path d="M17.5 294V309H32.5V294H17.5Z" fill="#0E0C15"/>
<path d="M67.5 294H52.5V309H67.5V294Z" fill="#0E0C15"/>
<path d="M380 269H385V264H375V269H377.5H380Z" fill="#282473"/>
<path d="M375 274V269H370V274H372.5H375ZM390 264H395V259H385V264H387.5H390Z" fill="#282473"/>
<path d="M400 259H420V254H395V259H397.5H400ZM440 274H445V269H440V271.5V274Z" fill="#282473"/>
<path d="M447.5 274H445V371.5H440V376.5H450V274H447.5ZM420 264H430V259H420V261.5V264Z" fill="#282473"/>
<path d="M430 269H440V264H430V266.5V269ZM370 371.5V274H365V376.5H375V371.5H372.5H370Z" fill="#282473"/>
<path d="M387.5 366.5H375V371.5H387.5V369V366.5Z" fill="#282473"/>
<path d="M395 371.5H387.5V376.5H400V371.5H397.5H395ZM440 366.5H427.5V371.5H440V369V366.5Z" fill="#282473"/>
<path d="M415 366.5H400V371.5H415V369V366.5Z" fill="#282473"/>
<path d="M422.5 371.5H415V376.5H427.5V371.5H425H422.5Z" fill="#282473"/>
<path d="M372.5 346.5V361.5H377.5V359H382.5V361.5H387.5V366.5H375V371.5H370V274H375V276.5H372.5V341.5V346.5Z" fill="#B6D9FC"/>
<path d="M395 366.5H387.5V371.5H400V366.5H397.5H395ZM422.5 366.5H415V371.5H427.5V366.5H425H422.5Z" fill="#B6D9FC"/>
<path d="M415 361.5H410V359H405V361.5H400V366.5H415V364V361.5ZM390 266.5H395V264H385V266.5H387.5H390ZM380 271.5H385V269H375V271.5H377.5H380ZM440 349V361.5H437.5V359H432.5V361.5H427.5V366.5H440V371.5H445V274H440V346.5V349Z" fill="#B6D9FC"/>
<path d="M420 259H395V261.5H407.5V264H420V261.5V259ZM440 269H430V274H440V271.5V269Z" fill="#B6D9FC"/>
<path d="M430 264H420V269H430V266.5V264Z" fill="#B6D9FC"/>
<path d="M437.5 274H430V269H420V264H407.5V261.5H395V266.5H385V271.5H375V276.5H372.5V361.5H377.5V359H382.5V361.5H387.5V366.5H400V361.5H405V359H410V361.5H415V366.5H427.5V361.5H432.5V359H437.5V361.5H440V274H437.5Z" fill="white"/>
<path d="M380 319V324H385V319H382.5H380ZM432.5 319H430V324H435V319H432.5Z" fill="#F696C6"/>
<path d="M400 319H395V324H400V321.5V319Z" fill="#282473"/>
<path d="M410 324H400V329H415V324H412.5H410Z" fill="#282473"/>
<path d="M417.5 319H415V324H420V319H417.5Z" fill="#282473"/>
<path d="M375 344H377.5V346.5H375V344ZM377.5 329H380V331.5H377.5V329Z" fill="#282473"/>
<path d="M380 331.5H382.5V334H380V331.5ZM392.5 339V349H395V339H392.5ZM380 346.5H377.5V349H382.5V346.5H380Z" fill="#282473"/>
<path d="M387.5 349H382.5V351.5H392.5V349H390H387.5ZM390 336.5H387.5V339H392.5V336.5H390Z" fill="#282473"/>
<path d="M385 334H382.5V336.5H387.5V334H385Z" fill="#282473"/>
<path d="M375 346.5H377.5V349H375V346.5ZM387.5 351.5H382.5V354H392.5V351.5H390H387.5Z" fill="#B6D9FC"/>
<path d="M395 341.5V349H397.5V341.5H395ZM380 349H377.5V351.5H382.5V349H380Z" fill="#B6D9FC"/>
<path d="M392.5 349H395V351.5H392.5V349ZM375 341.5H372.5V346.5H375V344V341.5Z" fill="#B6D9FC"/>
<path d="M437.5 344H440V346.5H437.5V344ZM435 329H437.5V331.5H435V329Z" fill="#282473"/>
<path d="M432.5 331.5H435V334H432.5V331.5Z" fill="#282473"/>
<path d="M432.5 336.5V334H427.5V336.5H430H432.5ZM432.5 346.5V349H437.5V346.5H435H432.5Z" fill="#282473"/>
<path d="M427.5 349H422.5V351.5H432.5V349H430H427.5Z" fill="#282473"/>
<path d="M422.5 344V339H420V349H422.5V346.5V344Z" fill="#282473"/>
<path d="M427.5 339V336.5H422.5V339H425H427.5Z" fill="#282473"/>
<path d="M432.5 349V351.5H437.5V349H435H432.5ZM420 344V341.5H417.5V349H420V346.5V344Z" fill="#B6D9FC"/>
<path d="M427.5 351.5H422.5V354H432.5V351.5H430H427.5Z" fill="#B6D9FC"/>
<path d="M420 349H422.5V351.5H420V349ZM437.5 346.5H440V349H437.5V346.5Z" fill="#B6D9FC"/>
<path opacity="0.25" d="M390 384H375V386.5H377.5V389H437.5V386.5H440V384H437.5H390Z" fill="black"/>
<path d="M420 284V276.5H417.5V286.5H420V284ZM412.5 289H415V291.5H412.5V289Z" fill="#282473"/>
<path d="M415 286.5H417.5V289H415V286.5ZM400 289H402.5V291.5H400V289Z" fill="#282473"/>
<path d="M405 294H412.5V291.5H402.5V294H405Z" fill="#282473"/>
<path d="M406.25 276.5H403.75V279H406.25V286.5H408.75V279H411.25V276.5H408.75H406.25ZM410 269H402.5V271.5H412.5V269H410Z" fill="#489FF8"/>
<path d="M412.5 271.5H415V274H412.5V271.5ZM395 279V286.5H397.5V276.5H395V279ZM400 271.5H402.5V274H400V271.5Z" fill="#489FF8"/>
<path d="M397.5 274H400V276.5H397.5V274Z" fill="#489FF8"/>
<path d="M382.5 294V309H397.5V294H382.5Z" fill="#282473"/>
<path d="M432.5 294H417.5V309H432.5V294Z" fill="#282473"/>
<path d="M45 15H50V10H40V15H42.5H45Z" fill="#2664BA"/>
<path d="M40 20V15H35V20H37.5H40ZM55 10H60V5H50V10H52.5H55Z" fill="#2664BA"/>
<path d="M65 5H85V0H60V5H62.5H65ZM105 20H110V15H105V17.5V20Z" fill="#2664BA"/>
<path d="M112.5 20H110V117.5H105V122.5H115V20H112.5ZM85 10H95V5H85V7.5V10Z" fill="#2664BA"/>
<path d="M95 15H105V10H95V12.5V15ZM35 117.5V20H30V122.5H40V117.5H37.5H35Z" fill="#2664BA"/>
<path d="M52.5 112.5H40V117.5H52.5V115V112.5Z" fill="#2664BA"/>
<path d="M60 117.5H52.5V122.5H65V117.5H62.5H60ZM105 112.5H92.5V117.5H105V115V112.5Z" fill="#2664BA"/>
<path d="M80 112.5H65V117.5H80V115V112.5Z" fill="#2664BA"/>
<path d="M87.5 117.5H80V122.5H92.5V117.5H90H87.5Z" fill="#2664BA"/>
<path d="M37.5 92.5V107.5H42.5V105H47.5V107.5H52.5V112.5H40V117.5H35V20H40V22.5H37.5V87.5V92.5Z" fill="#D4E0F1"/>
<path d="M60 112.5H52.5V117.5H65V112.5H62.5H60ZM87.5 112.5H80V117.5H92.5V112.5H90H87.5Z" fill="#D4E0F1"/>
<path d="M80 107.5H75V105H70V107.5H65V112.5H80V110V107.5ZM55 12.5H60V10H50V12.5H52.5H55ZM45 17.5H50V15H40V17.5H42.5H45ZM105 95V107.5H102.5V105H97.5V107.5H92.5V112.5H105V117.5H110V20H105V92.5V95Z" fill="#D4E0F1"/>
<path d="M85 5H60V7.5H72.5V10H85V7.5V5ZM105 15H95V20H105V17.5V15Z" fill="#D4E0F1"/>
<path d="M95 10H85V15H95V12.5V10Z" fill="#D4E0F1"/>
<path d="M102.5 20H95V15H85V10H72.5V7.5H60V12.5H50V17.5H40V22.5H37.5V107.5H42.5V105H47.5V107.5H52.5V112.5H65V107.5H70V105H75V107.5H80V112.5H92.5V107.5H97.5V105H102.5V107.5H105V20H102.5Z" fill="white"/>
<path d="M45 65V70H50V65H47.5H45ZM97.5 65H95V70H100V65H97.5Z" fill="#F696C6"/>
<path d="M65 65H60V70H65V67.5V65Z" fill="#2664BA"/>
<path d="M75 70H65V75H80V70H77.5H75Z" fill="#2664BA"/>
<path d="M82.5 65H80V70H85V65H82.5Z" fill="#2664BA"/>
<path d="M40 90H42.5V92.5H40V90ZM42.5 75H45V77.5H42.5V75Z" fill="#2664BA"/>
<path d="M45 77.5H47.5V80H45V77.5ZM57.5 85V95H60V85H57.5ZM45 92.5H42.5V95H47.5V92.5H45Z" fill="#2664BA"/>
<path d="M52.5 95H47.5V97.5H57.5V95H55H52.5ZM55 82.5H52.5V85H57.5V82.5H55Z" fill="#2664BA"/>
<path d="M50 80H47.5V82.5H52.5V80H50Z" fill="#2664BA"/>
<path d="M40 92.5H42.5V95H40V92.5ZM52.5 97.5H47.5V100H57.5V97.5H55H52.5Z" fill="#D4E0F1"/>
<path d="M60 87.5V95H62.5V87.5H60ZM45 95H42.5V97.5H47.5V95H45Z" fill="#D4E0F1"/>
<path d="M57.5 95H60V97.5H57.5V95ZM40 87.5H37.5V92.5H40V90V87.5Z" fill="#D4E0F1"/>
<path d="M102.5 90H105V92.5H102.5V90ZM100 75H102.5V77.5H100V75Z" fill="#2664BA"/>
<path d="M97.5 77.5H100V80H97.5V77.5Z" fill="#2664BA"/>
<path d="M97.5 82.5V80H92.5V82.5H95H97.5ZM97.5 92.5V95H102.5V92.5H100H97.5Z" fill="#2664BA"/>
<path d="M92.5 95H87.5V97.5H97.5V95H95H92.5Z" fill="#2664BA"/>
<path d="M87.5 90V85H85V95H87.5V92.5V90Z" fill="#2664BA"/>
<path d="M92.5 85V82.5H87.5V85H90H92.5Z" fill="#2664BA"/>
<path d="M97.5 95V97.5H102.5V95H100H97.5ZM85 90V87.5H82.5V95H85V92.5V90Z" fill="#D4E0F1"/>
<path d="M92.5 97.5H87.5V100H97.5V97.5H95H92.5Z" fill="#D4E0F1"/>
<path d="M85 95H87.5V97.5H85V95ZM102.5 92.5H105V95H102.5V92.5Z" fill="#D4E0F1"/>
<path opacity="0.25" d="M55 130H40V132.5H42.5V135H102.5V132.5H105V130H102.5H55Z" fill="black"/>
<path d="M67.5 22.5V27.5H75V30H67.5V32.5H71.25V35H73.75V32.5H77.5V25H70V22.5H77.5V20H73.75V17.5H71.25V20H67.5V22.5ZM77.5 35H80V37.5H77.5V35Z" fill="#2664BA"/>
<path d="M80 32.5H82.5V35H80V32.5Z" fill="#2664BA"/>
<path d="M82.5 25V32.5H85V20H82.5V22.5V25ZM77.5 15H80V17.5H77.5V15Z" fill="#2664BA"/>
<path d="M80 17.5H82.5V20H80V17.5ZM62.5 30V20H60V32.5H62.5V30ZM65 35H67.5V37.5H65V35Z" fill="#2664BA"/>
<path d="M62.5 32.5H65V35H62.5V32.5ZM65 15H67.5V17.5H65V15Z" fill="#2664BA"/>
<path d="M62.5 17.5H65V20H62.5V17.5Z" fill="#2664BA"/>
<path d="M50 55V57.5V60H52.5H55H57.5H60V57.5V55H62.5H65V52.5V50V47.5V45H62.5H60V42.5V40H57.5H55H52.5H50V42.5V45H47.5H45V47.5V50V52.5V55H47.5H50Z" fill="#2664BA"/>
<path d="M80 45V47.5V50V52.5V55H82.5H85V57.5V60H87.5H90H92.5H95V57.5V55H97.5H100V52.5V50V47.5V45H97.5H95V42.5V40H92.5H90H87.5H85V42.5V45H82.5H80Z" fill="#2664BA"/>
<path d="M181 146H189V138H173V146H177H181Z" fill="#64438E"/>
<path d="M173 154V146H165V154H169H173ZM197 138H205V130H189V138H193H197Z" fill="#64438E"/>
<path d="M213 130H245V122H205V130H209H213ZM277 154H285V146H277V150V154Z" fill="#64438E"/>
<path d="M289 154H285V310H277V318H293V154H289ZM245 138H261V130H245V134V138Z" fill="#64438E"/>
<path d="M261 146H277V138H261V142V146ZM165 310V154H157V318H173V310H169H165Z" fill="#64438E"/>
<path d="M193 302H173V310H193V306V302Z" fill="#64438E"/>
<path d="M205 310H193V318H213V310H209H205ZM277 302H257V310H277V306V302Z" fill="#64438E"/>
<path d="M237 302H213V310H237V306V302Z" fill="#64438E"/>
<path d="M249 310H237V318H257V310H253H249Z" fill="#64438E"/>
<path d="M169 270V294H177V290H185V294H193V302H173V310H165V154H173V158H169V262V270Z" fill="#EDD3FD"/>
<path d="M205 302H193V310H213V302H209H205ZM249 302H237V310H257V302H253H249Z" fill="#EDD3FD"/>
<path d="M237 294H229V290H221V294H213V302H237V298V294ZM197 142H205V138H189V142H193H197ZM181 150H189V146H173V150H177H181ZM277 274V294H273V290H265V294H257V302H277V310H285V154H277V270V274Z" fill="#EDD3FD"/>
<path d="M245 130H205V134H225V138H245V134V130ZM277 146H261V154H277V150V146Z" fill="#EDD3FD"/>
<path d="M261 138H245V146H261V142V138Z" fill="#EDD3FD"/>
<path d="M273 154H261V146H245V138H225V134H205V142H189V150H173V158H169V294H177V290H185V294H193V302H213V294H221V290H229V294H237V302H257V294H265V290H273V294H277V154H273Z" fill="white"/>
<path d="M181 226V234H189V226H185H181ZM265 226H261V234H269V226H265Z" fill="#F696C6"/>
<path d="M213 226H205V234H213V230V226Z" fill="#64438E"/>
<path d="M229 234H213V242H237V234H233H229Z" fill="#64438E"/>
<path d="M241 226H237V234H245V226H241Z" fill="#64438E"/>
<path d="M173 266H177V270H173V266ZM177 242H181V246H177V242Z" fill="#64438E"/>
<path d="M181 246H185V250H181V246ZM201 258V274H205V258H201ZM181 270H177V274H185V270H181Z" fill="#64438E"/>
<path d="M193 274H185V278H201V274H197H193ZM197 254H193V258H201V254H197Z" fill="#64438E"/>
<path d="M189 250H185V254H193V250H189Z" fill="#64438E"/>
<path d="M173 270H177V274H173V270ZM193 278H185V282H201V278H197H193Z" fill="#EDD3FD"/>
<path d="M205 262V274H209V262H205ZM181 274H177V278H185V274H181Z" fill="#EDD3FD"/>
<path d="M201 274H205V278H201V274ZM173 262H169V270H173V266V262Z" fill="#EDD3FD"/>
<path d="M273 266H277V270H273V266ZM269 242H273V246H269V242Z" fill="#64438E"/>
<path d="M265 246H269V250H265V246Z" fill="#64438E"/>
<path d="M265 254V250H257V254H261H265ZM265 270V274H273V270H269H265Z" fill="#64438E"/>
<path d="M257 274H249V278H265V274H261H257Z" fill="#64438E"/>
<path d="M249 266V258H245V274H249V270V266Z" fill="#64438E"/>
<path d="M257 258V254H249V258H253H257Z" fill="#64438E"/>
<path d="M265 274V278H273V274H269H265ZM245 266V262H241V274H245V270V266Z" fill="#EDD3FD"/>
<path d="M257 278H249V282H265V278H261H257Z" fill="#EDD3FD"/>
<path d="M245 274H249V278H245V274ZM273 270H277V274H273V270Z" fill="#EDD3FD"/>
<path opacity="0.25" d="M197 330H173V334H177V338H273V334H277V330H273H197Z" fill="black"/>
<path d="M213 166V158H209V174H213V170V166Z" fill="#64438E"/>
<path d="M213 154H217V158H213V154ZM213 174H217V178H213V174Z" fill="#64438E"/>
<path d="M217 178H221V182H217V178Z" fill="#64438E"/>
<path d="M221 182V186H229V182H225H221ZM217 150H221V154H217V150ZM233 174H237V178H233V174ZM233 154H237V158H233V154Z" fill="#64438E"/>
<path d="M229 150V146H221V150H225H229ZM229 178H233V182H229V178Z" fill="#64438E"/>
<path d="M229 150H233V154H229V150ZM237 158V174H241V158H237Z" fill="#64438E"/>
<path d="M233 166H225V182H229V178H233V174H237V166H233Z" fill="#C260FF"/>
<path d="M217 166H213V174H217V178H221V182H225V166H221H217Z" fill="#DEA8FF"/>
<path d="M233 158V154H229V150H225V166H237V158H233Z" fill="#DEA8FF"/>
<path d="M221 166H225V150H221V154H217V158H213V166H217H221Z" fill="#EDD3FD"/>
<path d="M189 210V214V218H193H197H201H205V214V210H209H213V206V202V198V194H209H205V190V186H201H197H193H189V190V194H185H181V198V202V206V210H185H189Z" fill="#64438E"/>
<path d="M237 194V198V202V206V210H241H245V214V218H249H253H257H261V214V210H265H269V206V202V198V194H265H261V190V186H257H253H249H245V190V194H241H237Z" fill="#64438E"/>
<path d="M350 15H355V10H345V15H347.5H350Z" fill="#FF7D00"/>
<path d="M345 20V15H340V20H342.5H345ZM360 10H365V5H355V10H357.5H360Z" fill="#FF7D00"/>
<path d="M370 5H390V0H365V5H367.5H370ZM410 20H415V15H410V17.5V20Z" fill="#FF7D00"/>
<path d="M417.5 20H415V117.5H410V122.5H420V20H417.5ZM390 10H400V5H390V7.5V10Z" fill="#FF7D00"/>
<path d="M400 15H410V10H400V12.5V15ZM340 117.5V20H335V122.5H345V117.5H342.5H340Z" fill="#FF7D00"/>
<path d="M357.5 112.5H345V117.5H357.5V115V112.5Z" fill="#FF7D00"/>
<path d="M365 117.5H357.5V122.5H370V117.5H367.5H365ZM410 112.5H397.5V117.5H410V115V112.5Z" fill="#FF7D00"/>
<path d="M385 112.5H370V117.5H385V115V112.5Z" fill="#FF7D00"/>
<path d="M392.5 117.5H385V122.5H397.5V117.5H395H392.5Z" fill="#FF7D00"/>
<path d="M342.5 92.5V107.5H347.5V105H352.5V107.5H357.5V112.5H345V117.5H340V20H345V22.5H342.5V87.5V92.5Z" fill="#F9D792"/>
<path d="M365 112.5H357.5V117.5H370V112.5H367.5H365ZM392.5 112.5H385V117.5H397.5V112.5H395H392.5Z" fill="#F9D792"/>
<path d="M385 107.5H380V105H375V107.5H370V112.5H385V110V107.5ZM360 12.5H365V10H355V12.5H357.5H360ZM350 17.5H355V15H345V17.5H347.5H350ZM410 95V107.5H407.5V105H402.5V107.5H397.5V112.5H410V117.5H415V20H410V92.5V95Z" fill="#F9D792"/>
<path d="M390 5H365V7.5H377.5V10H390V7.5V5ZM410 15H400V20H410V17.5V15Z" fill="#F9D792"/>
<path d="M400 10H390V15H400V12.5V10Z" fill="#F9D792"/>
<path d="M407.5 20H400V15H390V10H377.5V7.5H365V12.5H355V17.5H345V22.5H342.5V107.5H347.5V105H352.5V107.5H357.5V112.5H370V107.5H375V105H380V107.5H385V112.5H397.5V107.5H402.5V105H407.5V107.5H410V20H407.5Z" fill="white"/>
<path d="M350 65V70H355V65H352.5H350ZM402.5 65H400V70H405V65H402.5Z" fill="#F4AF24"/>
<path d="M370 65H365V70H370V67.5V65Z" fill="#FF7D00"/>
<path d="M380 70H370V75H385V70H382.5H380Z" fill="#FF7D00"/>
<path d="M387.5 65H385V70H390V65H387.5Z" fill="#FF7D00"/>
<path d="M345 90H347.5V92.5H345V90ZM347.5 75H350V77.5H347.5V75Z" fill="#FF7D00"/>
<path d="M350 77.5H352.5V80H350V77.5ZM362.5 85V95H365V85H362.5ZM350 92.5H347.5V95H352.5V92.5H350Z" fill="#FF7D00"/>
<path d="M357.5 95H352.5V97.5H362.5V95H360H357.5ZM360 82.5H357.5V85H362.5V82.5H360Z" fill="#FF7D00"/>
<path d="M355 80H352.5V82.5H357.5V80H355Z" fill="#FF7D00"/>
<path d="M345 92.5H347.5V95H345V92.5ZM357.5 97.5H352.5V100H362.5V97.5H360H357.5Z" fill="#F9D792"/>
<path d="M365 87.5V95H367.5V87.5H365ZM350 95H347.5V97.5H352.5V95H350Z" fill="#F9D792"/>
<path d="M362.5 95H365V97.5H362.5V95ZM345 87.5H342.5V92.5H345V90V87.5Z" fill="#F9D792"/>
<path d="M407.5 90H410V92.5H407.5V90ZM405 75H407.5V77.5H405V75Z" fill="#FF7D00"/>
<path d="M402.5 77.5H405V80H402.5V77.5Z" fill="#FF7D00"/>
<path d="M402.5 82.5V80H397.5V82.5H400H402.5ZM402.5 92.5V95H407.5V92.5H405H402.5Z" fill="#FF7D00"/>
<path d="M397.5 95H392.5V97.5H402.5V95H400H397.5Z" fill="#FF7D00"/>
<path d="M392.5 90V85H390V95H392.5V92.5V90Z" fill="#FF7D00"/>
<path d="M397.5 85V82.5H392.5V85H395H397.5Z" fill="#FF7D00"/>
<path d="M402.5 95V97.5H407.5V95H405H402.5ZM390 90V87.5H387.5V95H390V92.5V90Z" fill="#F9D792"/>
<path d="M397.5 97.5H392.5V100H402.5V97.5H400H397.5Z" fill="#F9D792"/>
<path d="M390 95H392.5V97.5H390V95ZM407.5 92.5H410V95H407.5V92.5Z" fill="#F9D792"/>
<path opacity="0.25" d="M360 130H345V132.5H347.5V135H407.5V132.5H410V130H407.5H360Z" fill="black"/>
<path d="M390 25V22.5H387.5V20H385V22.5H370V17.5H382.5V15H367.5V22.5H365V25H367.5V27.5H365V30H367.5V37.5H382.5V35H370V30H385V32.5H387.5V30H390V27.5H387.5V25H390ZM385 27.5H370V25H385V27.5Z" fill="#FF7D00"/>
<path d="M382.5 32.5H385V35H382.5V32.5ZM382.5 17.5H385V20H382.5V17.5Z" fill="#FF7D00"/>
<path d="M365 42.5H362.5H360H357.5H355H352.5H350V45V47.5H352.5H355H357.5H360H362.5H365H367.5H370V45V42.5H367.5H365Z" fill="#FF7D00"/>
<path d="M402.5 42.5H400H397.5H395H392.5H390H387.5H385V45V47.5H387.5H390H392.5H395H397.5H400H402.5H405V45V42.5H402.5Z" fill="#FF7D00"/>
<path d="M362.5 42.5H357.5V47.5H362.5V42.5Z" fill="#EA8C27"/>
<path d="M397.5 42.5H392.5V47.5H397.5V42.5Z" fill="#EA8C27"/>
</svg>
